<svg width="38" height="36" viewBox="0 0 38 36" fill="none" xmlns="http://www.w3.org/2000/svg">
<g clip-path="url(#clip0_1828_384)">
<path d="M29.6356 24.6962C31.5025 24.3356 33.1619 23.3282 34.2918 21.8695C35.4216 20.4107 35.9412 18.6047 35.7498 16.8021C35.5583 14.9995 34.6695 13.3288 33.2557 12.1144C31.842 10.9 30.0043 10.2286 28.0993 10.2304H26.1635C25.6545 8.35615 24.6641 6.63146 23.2812 5.21118C21.8983 3.7909 20.1662 2.71947 18.2404 2.09311C16.3146 1.46674 14.2554 1.30504 12.2476 1.62253C10.2399 1.94001 8.34647 2.72673 6.73737 3.91207C5.12827 5.0974 3.85386 6.64424 3.02856 8.41371C2.20325 10.1832 1.85289 12.1199 2.00892 14.0499C2.16496 15.98 2.8225 17.843 3.92253 19.4717C5.02256 21.1003 6.53062 22.4437 8.31134 23.3811M20.4176 16.0752L14.2723 24.8423H23.4903L17.345 33.6095" stroke="#303030" stroke-width="2" stroke-linecap="round" stroke-linejoin="round"/>
</g>
<defs>
<clipPath id="clip0_1828_384">
<rect width="36.872" height="35.0686" fill="currentColor" transform="translate(0.445312 0.0020752)"/>
</clipPath>
</defs>
</svg>
