<svg width="30" height="33" viewBox="0 0 30 33" fill="none" xmlns="http://www.w3.org/2000/svg">
<path d="M8.01078 5.1536L14.9243 8.9527L21.8378 5.1536M8.01078 27.919V20.3354L1.09729 16.5363M28.7513 16.5363L21.8378 20.3354V27.919M1.5121 9.17188L14.9243 16.5509L28.3365 9.17188M14.9243 31.2651V16.5363M28.7513 22.3811V10.6915C28.7507 10.179 28.6085 9.67571 28.3388 9.23203C28.0692 8.78834 27.6816 8.4199 27.2149 8.16366L16.4606 2.31889C15.9935 2.0624 15.4636 1.92737 14.9243 1.92737C14.3849 1.92737 13.8551 2.0624 13.3879 2.31889L2.63362 8.16366C2.16698 8.4199 1.77939 8.78834 1.50974 9.23203C1.24008 9.67571 1.09784 10.179 1.09729 10.6915V22.3811C1.09784 22.8935 1.24008 23.3969 1.50974 23.8405C1.77939 24.2842 2.16698 24.6527 2.63362 24.9089L13.3879 30.7537C13.8551 31.0102 14.3849 31.1452 14.9243 31.1452C15.4636 31.1452 15.9935 31.0102 16.4606 30.7537L27.2149 24.9089C27.6816 24.6527 28.0692 24.2842 28.3388 23.8405C28.6085 23.3969 28.7507 22.8935 28.7513 22.3811Z" stroke="#303030" stroke-width="2" stroke-linecap="round" stroke-linejoin="round"/>
</svg>
