<svg width="251" height="105" viewBox="0 0 251 105" fill="none" xmlns="http://www.w3.org/2000/svg">
<g clip-path="url(#clip0_1721_124)">
<path d="M250.733 44.5352L125.5 104.335L0.267212 44.5352" stroke="white" stroke-width="2" stroke-miterlimit="10"/>
<path d="M0.267212 60.4648L125.5 0.665283L250.733 60.4648" stroke="white" stroke-width="2" stroke-miterlimit="10"/>
<path d="M91.1789 38.68L89.3189 40.7C88.3989 39.84 87.1989 38.92 85.1789 38.92C83.6389 38.92 82.5789 39.46 82.5789 40.48C82.5789 41.86 84.5789 41.94 86.2989 42.24C88.9789 42.7 91.5789 43.64 91.5789 46.58C91.5789 49.32 89.3389 51.38 85.3789 51.38C82.1989 51.38 79.9589 50.06 78.6989 48.76L80.5589 46.76C81.6389 47.74 83.0189 48.78 85.3589 48.78C86.9789 48.78 88.1589 48.28 88.1589 47.16C88.1589 45.64 86.0589 45.52 84.1989 45.2C81.5189 44.74 79.1589 43.8 79.1589 41.02C79.1589 38.36 81.3189 36.32 84.9789 36.32C87.8389 36.32 90.0589 37.58 91.1789 38.68ZM104.781 51H101.301L101.321 49.12V38.58L101.301 36.7H104.781L104.761 38.58V49.12L104.781 51ZM124.823 38.58L124.803 36.7H127.843L127.823 38.58V49.12L127.843 51H125.183L118.543 42.02H118.503L118.543 43.28V49.12L118.563 51H115.523L115.543 49.12V38.58L115.523 36.7H118.603L124.823 45.08H124.863L124.823 43.82V38.58ZM147.997 46.04L151.097 46.78C150.697 48.44 148.817 51.38 144.657 51.38C140.857 51.38 137.697 48.9 137.697 44C137.697 39.44 140.537 36.32 144.777 36.32C148.517 36.32 150.317 38.7 150.977 40.94L147.777 41.5C147.397 40.24 146.477 38.84 144.697 38.84C142.837 38.84 141.417 40.5 141.417 43.86C141.417 47.78 143.177 48.86 144.777 48.86C146.557 48.86 147.697 47.5 147.997 46.04ZM169.766 42.48V45.06H164.026V48.42H171.106V51H160.566L160.586 49.12V38.58L160.566 36.7H171.006V39.28H164.026V42.48H169.766ZM102.35 67.04C102.35 69.42 100.41 70.74 98.5303 71.96C97.4103 72.68 96.2503 73.38 95.3103 74.2V74.24H102.31V77H91.4903V74.84C92.7303 73.2 94.4503 71.98 95.9503 70.82C97.5103 69.64 98.9303 68.6 98.9303 67.16C98.9303 66.2 98.2903 65.28 96.9503 65.28C95.4703 65.28 94.5703 66.38 93.9703 67.88L91.4903 66.76C92.7103 64.12 94.5303 62.82 97.2303 62.82C100.43 62.82 102.35 64.66 102.35 67.04ZM117.647 62.82C121.287 62.82 123.547 66.08 123.547 70.08C123.547 74.04 121.287 77.36 117.647 77.36C114.047 77.36 111.747 74.04 111.747 70.08C111.747 66.08 114.047 62.82 117.647 62.82ZM117.647 65.28C116.147 65.28 115.127 66.86 115.127 70.06C115.127 73.28 116.147 74.9 117.647 74.9C119.167 74.9 120.147 73.28 120.147 70.06C120.147 66.86 119.167 65.28 117.647 65.28ZM138.684 75.14L138.704 77H135.224L135.244 75.14V66.82H135.204L132.584 68.16H132.544V65.32L136.784 63.14H138.704L138.684 65V75.14ZM150.021 77C151.361 72.82 153.341 69.3 155.521 65.98V65.94H148.541L148.761 63.14H159.021V64.92C157.421 67.48 154.901 72.12 154.061 77H150.021Z" fill="white"/>
</g>
<defs>
<clipPath id="clip0_1721_124">
<rect width="251" height="105" fill="white"/>
</clipPath>
</defs>
</svg>
