<?xml version="1.0" encoding="UTF-8"?>
<svg id="Layer_1" xmlns="http://www.w3.org/2000/svg" xmlns:xlink="http://www.w3.org/1999/xlink" version="1.1" viewBox="0 0 150 150">
  <!-- Generator: Adobe Illustrator 29.5.1, SVG Export Plug-In . SVG Version: 2.1.0 Build 141)  -->
  <defs>
    <style>
      .st0 {
        fill: none;
      }

      .st1 {
        fill: #fff;
      }

      .st2 {
        clip-path: url(#clippath);
      }
    </style>
    <clipPath id="clippath">
      <rect class="st0" x="7.05" y="45.53" width="135.9" height="58.95"/>
    </clipPath>
  </defs>
  <g class="st2">
    <g>
      <path class="st1" d="M142.95,71.95l-1.73-3.6-9.22,4.44-37.67-18.15v-7.92h-4.82v14.36l4.47-2.18,33.42,16.11-52.41,25.25-52.4-25.25,52.41-25.25,12.19,5.87v-4.44l-11.33-5.46c-.54-.26-1.18-.26-1.73,0l-56.15,27.06-9.21-4.44-1.73,3.6,6.34,3.05-6.34,3.05,1.73,3.6,9.22-4.44,56.15,27.06c.27.13.57.2.86.2s.59-.07.86-.2l56.15-27.06,9.22,4.44,1.73-3.6-6.34-3.05,6.34-3.05h-.01Z"/>
      <path class="st1" d="M59.92,88.05l-.73-.29c-3.77-1.52-6.92-2.76-9.9-3.92l-.34-.13v-17.52l.34-.13c1.53-.59,2.28-.88,3.75-1.46l.73-.29v17.71c1.73.52,3.58,1.08,5.77,1.74l.38.11v4.18h0Z"/>
      <path class="st1" d="M71.91,92.85l-.73-.29c-3.31-1.31-6.67-2.66-9.52-3.81l-.33-.13v-27.34l.33-.13c2.99-1.21,6.22-2.51,9.52-3.81l.73-.29v5.35l-.38.11c-1.67.5-3.48,1.04-5.5,1.66v8.78c1.38-.06,2.24-.09,3.8-.15l.55-.02v5.03l-.56-.03c-1.56-.09-2.41-.13-3.79-.21v8.18c2.03.62,3.84,1.17,5.5,1.66l.38.11v5.35h0Z"/>
      <path class="st1" d="M92.45,87.22c-.56,0-1.08-.15-1.52-.44-.86-.58-1.32-1.66-1.3-3.03v-4.77l4.73-.64v4.54l3.19-.93.37-3.97c-2.24-1.18-4.35-2.51-6.59-4.17-1.31-.96-1.76-1.99-1.69-3.95v-4.3c-.04-1.23.4-2.19,1.2-2.68.87-.54,2.09-.47,3.35.18l3.76,1.44c2.93,1.01,4.43,2.57,4.34,4.52v3.24l-4.77-.72v-3.65l-3.15-.92v3.88c2.15,1.71,4.15,3.03,6.09,4.02,1.19.55,1.83,1.09,1.83,2.41v3.21c-.04,2.08-1.51,3.74-4.23,4.8l-3.98,1.53c-.57.24-1.12.37-1.63.37v.02Z"/>
      <path class="st1" d="M79.38,57.04c-2.9,0-5.25,2.57-5.25,5.74v24.32c0,3.2,2.37,5.79,5.29,5.79,4.25,0,7.7-3.77,7.7-8.42v-18.95c0-4.68-3.47-8.47-7.74-8.47h0ZM83.13,83.91c0,2.1-.68,3.22-1.52,3.81-.68.48-1.54.64-2.26.33-.79-.35-1.23-1.05-1.23-2.11v-22.61c0-.62.54-1.54,1.35-1.78.8-.21,1.48-.08,2.05.16,1.58.66,1.6,2.11,1.6,4.11v18.09Z"/>
    </g>
  </g>
</svg>