<?xml version="1.0" encoding="UTF-8"?>
<svg id="Layer_2" xmlns="http://www.w3.org/2000/svg" viewBox="0 0 59.85 93.46">
  <defs>
    <style>
      .cls-1 {
        fill: #fff;
      }

      .cls-2 {
        fill: #5f8c8c;
      }
    </style>
  </defs>
  <g id="Capa_1">
    <g>
      <g>
        <rect class="cls-2" width="59.85" height="81.73"/>
        <polygon class="cls-2" points="38.91 81.73 29.93 93.46 20.94 81.73 29.93 69.99 38.91 81.73"/>
      </g>
      <g>
        <g>
          <path class="cls-1" d="M49.47,25.32h-6.1c0-6.59-5.36-11.95-11.95-11.95v-6.1c9.95,0,18.05,8.1,18.05,18.05"/>
          <path class="cls-1" d="M16.49,25.32h-6.1c0-9.95,8.1-18.05,18.05-18.05v6.1c-6.59,0-11.95,5.36-11.95,11.95"/>
          <path class="cls-1" d="M28.43,46.33c-9.95,0-18.05-8.1-18.05-18.05h6.1c0,6.59,5.36,11.95,11.95,11.95v6.1Z"/>
          <path class="cls-1" d="M31.42,46.33v-6.1c6.59,0,11.95-5.36,11.95-11.95h6.1c0,9.95-8.1,18.05-18.05,18.05"/>
        </g>
        <g>
          <g>
            <path class="cls-1" d="M21.16,72.76h.43s.07,0,.11-.01c.04,0,.07-.02.1-.04.03-.02.06-.05.08-.08.02-.03.03-.07.03-.12,0-.05-.01-.09-.04-.12-.03-.03-.06-.06-.1-.07-.04-.02-.08-.03-.13-.03-.05,0-.09,0-.13,0h-.36v.5ZM21.16,71.86h.35s.07,0,.11-.01c.04,0,.07-.02.1-.04.03-.02.05-.04.07-.07.02-.03.03-.07.03-.11s0-.08-.03-.11c-.02-.03-.04-.05-.08-.07-.03-.02-.07-.03-.1-.04-.04,0-.08-.01-.11-.01h-.33v.47ZM20.68,70.98h.81c.09,0,.19,0,.29.02.1.01.18.04.26.08.08.04.14.1.19.17.05.07.07.17.07.29s-.03.23-.1.31c-.07.08-.16.14-.27.17h0c.07.02.14.04.2.07.06.03.11.07.15.11.04.05.07.1.1.16.02.06.03.13.03.2,0,.12-.02.21-.07.29-.05.08-.11.14-.19.19-.08.05-.17.08-.26.1-.1.02-.19.03-.29.03h-.89v-2.18Z"/>
            <path class="cls-1" d="M24.45,72.32c0,.13-.02.25-.06.36-.04.11-.1.2-.17.28-.08.08-.17.14-.29.19-.12.05-.25.07-.4.07s-.29-.02-.4-.07c-.11-.05-.21-.11-.29-.19-.08-.08-.14-.17-.17-.28-.04-.11-.06-.23-.06-.36v-1.34h.48v1.32c0,.07.01.13.03.19.02.06.05.11.09.15.04.04.09.08.14.1.05.02.11.04.18.04s.12-.01.18-.04c.05-.02.1-.06.14-.1.04-.04.07-.09.09-.15.02-.06.03-.12.03-.19v-1.32h.48v1.34Z"/>
          </g>
          <polygon class="cls-1" points="24.86 70.98 24.86 73.17 26.39 73.17 26.39 72.72 25.34 72.72 25.34 72.28 26.28 72.28 26.28 71.83 25.34 71.83 25.34 71.43 26.34 71.43 26.34 70.98 24.86 70.98"/>
          <polygon class="cls-1" points="28.31 70.98 28.31 72.5 28.3 72.5 27.37 70.98 26.72 70.98 26.72 73.17 27.2 73.17 27.2 71.61 27.2 71.61 28.16 73.17 28.79 73.17 28.79 70.98 28.31 70.98"/>
          <path class="cls-1" d="M30.07,71.62l.27.68h-.53l.27-.68ZM29.89,70.98l-.94,2.18h.53l.18-.46h.85l.19.46h.54l-.95-2.18h-.4Z"/>
          <polygon class="cls-1" points="32.38 70.98 31.83 72.41 31.83 72.41 31.29 70.98 30.74 70.98 31.61 73.17 32 73.17 32.9 70.98 32.38 70.98"/>
          <rect class="cls-1" x="33.12" y="70.98" width=".48" height="2.18"/>
          <path class="cls-1" d="M35.05,71.52s-.09-.09-.16-.11c-.07-.02-.13-.04-.19-.04-.03,0-.07,0-.11.01-.04,0-.07.02-.1.04-.03.02-.06.04-.08.07-.02.03-.03.06-.03.1,0,.07.02.12.07.15.05.03.11.06.19.09s.16.05.24.07c.09.02.17.06.24.1.08.05.14.11.19.18.05.08.07.18.07.31s-.02.23-.07.32c-.05.09-.11.17-.18.22-.08.06-.17.1-.27.13-.1.03-.21.04-.32.04-.14,0-.27-.02-.39-.06-.12-.04-.23-.11-.34-.21l.34-.38c.05.07.11.12.19.15.08.04.15.05.23.05.04,0,.08,0,.12-.01.04,0,.08-.02.11-.04.03-.02.06-.04.08-.07.02-.03.03-.06.03-.1,0-.07-.03-.12-.08-.16-.05-.04-.11-.07-.19-.1-.08-.03-.16-.05-.25-.08-.09-.03-.17-.06-.25-.11-.08-.04-.14-.1-.19-.18-.05-.07-.08-.17-.08-.29s.02-.22.07-.31.11-.16.19-.22c.08-.06.17-.1.27-.13s.2-.04.31-.04c.12,0,.24.02.36.05.12.04.22.09.31.18l-.33.36Z"/>
          <polygon class="cls-1" points="35.48 70.98 35.48 71.41 36.1 71.41 36.1 73.17 36.59 73.17 36.59 71.41 37.21 71.41 37.21 70.98 35.48 70.98"/>
          <path class="cls-1" d="M38.01,71.62l.27.68h-.53l.27-.68ZM37.83,70.98l-.94,2.18h.53l.18-.46h.85l.19.46h.54l-.95-2.18h-.4Z"/>
        </g>
        <g>
          <path class="cls-1" d="M14.62,63.41c0,.44.07.84.2,1.2.14.36.33.68.59.95.25.27.56.48.92.63.36.15.75.22,1.19.22s.84-.07,1.19-.22c.36-.15.66-.36.92-.63.25-.27.45-.58.59-.95.14-.36.2-.77.2-1.2s-.07-.83-.2-1.2c-.14-.37-.33-.69-.59-.95-.25-.27-.56-.48-.92-.63-.36-.15-.75-.22-1.19-.22s-.84.07-1.19.22c-.36.15-.66.36-.92.63-.25.27-.45.59-.59.95-.14.37-.2.77-.2,1.2M12.49,63.41c0-.75.13-1.42.38-2.03.25-.61.6-1.12,1.05-1.55s.98-.75,1.59-.98c.61-.23,1.29-.34,2.01-.34s1.4.11,2.02.34c.61.23,1.15.56,1.59.98.45.43.8.94,1.05,1.55.25.61.38,1.28.38,2.03s-.13,1.42-.38,2.03c-.25.61-.6,1.12-1.05,1.55-.45.43-.98.75-1.59.98-.61.23-1.29.34-2.02.34s-1.4-.11-2.01-.34c-.61-.23-1.15-.56-1.59-.98-.45-.43-.8-.94-1.05-1.55-.25-.61-.38-1.28-.38-2.03"/>
          <path class="cls-1" d="M25.47,62.7h1.37c.18,0,.36-.02.53-.05.17-.04.32-.09.46-.18.14-.08.25-.2.33-.34.08-.14.13-.33.13-.55,0-.24-.05-.43-.16-.57-.11-.14-.25-.26-.42-.34-.17-.08-.36-.13-.57-.15-.21-.02-.41-.03-.61-.03h-1.05v2.21ZM23.42,58.75h3.46c.48,0,.94.04,1.37.13.43.09.81.24,1.13.45.32.22.58.5.76.87.19.36.28.82.28,1.38s-.09,1-.26,1.37c-.18.37-.42.66-.72.88-.31.22-.67.38-1.09.47-.42.09-.88.14-1.37.14h-1.5v3.64h-2.05v-9.32Z"/>
          <polygon class="cls-1" points="31.27 58.75 37.6 58.75 37.6 60.65 33.32 60.65 33.32 62.39 37.37 62.39 37.37 64.28 33.32 64.28 33.32 66.18 37.84 66.18 37.84 68.07 31.27 68.07 31.27 58.75"/>
          <polygon class="cls-1" points="45.74 58.75 45.74 65.23 45.72 65.23 41.75 58.75 38.96 58.75 38.96 68.08 41.02 68.08 41.02 61.44 41.04 61.44 45.11 68.08 47.8 68.08 47.8 58.75 45.74 58.75"/>
        </g>
      </g>
    </g>
  </g>
</svg>