<svg width="36" height="36" viewBox="0 0 36 36" fill="none" xmlns="http://www.w3.org/2000/svg">
<path d="M21.1098 19.5399H12.3398C11.5898 19.5399 10.6798 19.0599 10.1998 18.3799C9.8298 17.7999 9.7198 17.2199 9.9298 16.6299L14.0998 5.99994C14.2098 5.78994 14.2598 5.57994 14.3698 5.30994C14.7398 4.24994 15.1198 3.18994 16.2398 3.18994H16.6098C17.8398 3.18994 18.3798 4.40994 18.8598 5.61994C18.9098 5.72994 18.9698 5.82994 18.9698 5.93994L23.4098 16.5699C23.6198 17.0999 23.5698 17.7299 23.1998 18.2599C22.7698 18.9999 21.8598 19.5299 21.1098 19.5299V19.5399Z" stroke="#231F20" stroke-width="1.5" stroke-miterlimit="10"/>
<path d="M17.3586 22.6999H16.0186C15.9086 22.6999 15.8086 22.5899 15.8086 22.4899V19.8499C15.8086 19.7399 15.9186 19.6399 16.0186 19.6399H17.3586C17.4686 19.6399 17.5686 19.7499 17.5686 19.8499V22.4899C17.6186 22.5999 17.5186 22.6999 17.3586 22.6999Z" stroke="#231F20" stroke-width="1.5" stroke-miterlimit="10"/>
<path d="M19.7081 22.82C19.6581 22.77 19.5981 22.77 19.5481 22.77L14.0381 22.82C13.9281 22.82 13.8281 22.93 13.8281 23.03V24.56C13.8281 24.61 13.8281 24.67 13.8781 24.72C13.9281 24.77 13.9881 24.77 14.0381 24.77H14.8281L14.3581 31.96C14.3581 32.01 14.3581 32.07 14.4081 32.12C14.4581 32.12 14.5181 32.17 14.5681 32.17H18.7381C18.7881 32.17 18.8481 32.17 18.8981 32.12C18.9481 32.07 18.9481 32.01 18.9481 31.96L18.4781 24.72H19.5381C19.6481 24.71 19.7481 24.6 19.7481 24.5V22.97C19.7481 22.92 19.7481 22.86 19.6981 22.81L19.7081 22.82Z" stroke="#231F20" stroke-width="1.5" stroke-miterlimit="10"/>
</svg>
