<?xml version="1.0" encoding="UTF-8"?>
<svg id="Layer_1" xmlns="http://www.w3.org/2000/svg" version="1.1" viewBox="0 0 33 27.6">
  <!-- Generator: Adobe Illustrator 29.6.1, SVG Export Plug-In . SVG Version: 2.1.1 Build 9)  -->
  <defs>
    <style>
      .st0 {
        fill: #010101;
      }

      .st1 {
        fill: #fff;
      }
    </style>
  </defs>
  <path class="st1" d="M33,0v27.6H0V0h33ZM19.3,6.5h1s.3-.2.3-.4c0-.8.1-1.9,0-2.7s0-.3-.3-.4h-11.1c-.1,0-.2.2-.3.3v2.6c0,.5.1.5.3.5h1v3.4h-3.6l-.2.1L.3,23.9c0,.2,0,.4.3.5h20.2c.3-.1.7-1.7.9-1.7h10.4c.2,0,.3-.1.4-.3l-5.4-12.2c0-.1-.2-.5-.3-.5h-7.5v-3.4.2Z"/>
  <path class="st0" d="M19.3,6.5v3.4h7.5c.1,0,.3.3.3.5l5.4,12.2c0,.2-.2.3-.4.3h-10.4c-.1,0-.6,1.6-.9,1.7H.6c-.2,0-.3-.3-.3-.5l6.1-14,.2-.1h3.6v-3.4h-1c-.2,0-.3-.3-.3-.5v-2.6c0-.5.1-.3.3-.3h11.1c.2,0,.2.2.3.4v2.7c0,.1-.2.4-.3.4h-1v-.2ZM19.7,3.9h-9.9v1.7h9.9v-1.7ZM16.7,6.5h-5.6v8.6h5.6V6.5ZM18.4,6.5h-.9v7.2l.9-1.6v-5.6ZM10.3,10.8h-3.2l-2.8,6.5h3.7l2.2-5v-1.5h.1ZM21.2,10.8h-1.9v1.4l-1.9,3.6s-.2,0-.3.1h-2.4l-.5,1.3h4.2l2.8-6.5v.1ZM25.9,10.8h-3.8l-2.8,6.5h3.7l2.8-6.5h.1ZM30.8,22l-4.6-9.5-4.1,9.5h8.8-.1ZM13.8,15.9h-3.2s-.3-.2-.3-.3v-1.2l-1.2,2.8h4.2l.6-1.3h-.1ZM7.7,18.1h-3.7l-2.4,5.6h3.8l2.4-5.6h-.1ZM12.8,18.1h-4.2l-2.4,5.6h4.2l2.4-5.6ZM18,18.1h-4.2l-2.4,5.6h4.2l2.4-5.6ZM22.7,18.1h-3.7l-2.4,5.6h3.8l2.4-5.6h-.1Z"/>
  <rect class="st1" x="11.1" y="6.5" width="5.6" height="8.6"/>
  <polygon class="st1" points="25.9 10.8 23.1 17.2 19.3 17.2 22.1 10.8 25.9 10.8"/>
  <polygon class="st1" points="10.3 10.8 10.3 12.3 8 17.2 4.3 17.2 7.1 10.8 10.3 10.8"/>
  <polygon class="st1" points="12.8 18.1 10.4 23.7 6.2 23.7 8.7 18.1 12.8 18.1"/>
  <polygon class="st1" points="18 18.1 15.6 23.7 11.4 23.7 13.8 18.1 18 18.1"/>
  <polygon class="st1" points="7.7 18.1 5.3 23.7 1.5 23.7 3.9 18.1 7.7 18.1"/>
  <polygon class="st1" points="22.7 18.1 20.3 23.7 16.6 23.7 19 18.1 22.7 18.1"/>
  <polygon class="st1" points="31.1 22 22 22 26.5 11.3 31.1 22"/>
  <rect class="st1" x="9.8" y="3.9" width="9.9" height="1.7"/>
  <path class="st1" d="M21.2,10.8l-2.8,6.5h-4.2l.5-1.3h2.4c.3,0,.2,0,.3-.1l1.9-3.6v-1.4h1.9v-.1Z"/>
  <path class="st1" d="M13.8,15.9l-.6,1.3h-4.2l1.2-2.8v1.2s.2.3.3.3h3.3Z"/>
  <polygon class="st1" points="18.4 6.5 18.4 12 17.6 13.6 17.6 6.5 18.4 6.5"/>
</svg>