<svg width="33" height="22" viewBox="0 0 33 22" fill="none" xmlns="http://www.w3.org/2000/svg">
<path d="M19.3 3.49991V6.89991H26.8C26.9 6.89991 27.1 7.19991 27.1 7.39991L32.5 19.5999C32.5 19.7999 32.3 19.8999 32.1 19.8999H21.7C21.6 19.8999 21.1 21.4999 20.8 21.5999H0.600003C0.400003 21.5999 0.300003 21.2999 0.300003 21.0999L6.4 7.09991L6.6 6.99991H10.2V3.59991H9.2C9 3.59991 8.9 3.29991 8.9 3.09991V0.499907C8.9 -9.34601e-05 9 0.199907 9.2 0.199907H20.3C20.5 0.199907 20.5 0.399906 20.6 0.599906V3.29991C20.6 3.39991 20.4 3.69991 20.3 3.69991H19.3V3.49991ZM19.7 0.899907H9.8V2.59991H19.7V0.899907ZM16.7 3.49991H11.1V12.0999H16.7V3.49991ZM18.4 3.49991H17.5V10.6999L18.4 9.09991V3.49991ZM10.3 7.79991H7.1L4.3 14.2999H8L10.2 9.29991V7.79991H10.3ZM21.2 7.79991H19.3V9.19991L17.4 12.7999C17.4 12.7999 17.2 12.7999 17.1 12.8999H14.7L14.2 14.1999H18.4L21.2 7.69991V7.79991ZM25.9 7.79991H22.1L19.3 14.2999H23L25.8 7.79991H25.9ZM30.8 18.9999L26.2 9.49991L22.1 18.9999H30.9H30.8ZM13.8 12.8999H10.6C10.6 12.8999 10.3 12.6999 10.3 12.5999V11.3999L9.1 14.1999H13.3L13.9 12.8999H13.8ZM7.7 15.0999H4L1.6 20.6999H5.4L7.8 15.0999H7.7ZM12.8 15.0999H8.6L6.2 20.6999H10.4L12.8 15.0999ZM18 15.0999H13.8L11.4 20.6999H15.6L18 15.0999ZM22.7 15.0999H19L16.6 20.6999H20.4L22.8 15.0999H22.7Z" fill="#010101"/>
</svg>
