<svg width="36" height="36" viewBox="0 0 36 36" fill="none" xmlns="http://www.w3.org/2000/svg">
<path d="M21.2199 9.51997V13.1H28.9599C29.0899 13.1 29.3199 13.42 29.2699 13.57L34.8999 26.23C34.8399 26.39 34.6899 26.5 34.5099 26.51H23.6699C23.5399 26.54 23.0799 28.14 22.7799 28.25L1.83991 28.27C1.62991 28.19 1.52991 27.99 1.55991 27.77L7.92991 13.24C7.92991 13.24 8.09991 13.1 8.12991 13.1H11.8499V9.51997H10.8199C10.6399 9.51997 10.5199 9.20997 10.5099 9.04997C10.4599 8.47997 10.4299 6.84997 10.5099 6.30997C10.5399 6.14997 10.6299 6.02997 10.7799 5.96997H22.2999C22.4799 6.03997 22.5599 6.16997 22.5799 6.35997C22.6799 7.21997 22.5099 8.26997 22.5799 9.14997C22.5899 9.26997 22.3599 9.51997 22.2799 9.51997H21.2499H21.2199Z" stroke="#231F20" stroke-width="1.5" stroke-miterlimit="10"/>
<path d="M11.5195 13.0601H21.8595" stroke="#231F20" stroke-width="1.5" stroke-miterlimit="10"/>
<path d="M28.9602 13.0901L23.6602 26.5001" stroke="#231F20" stroke-width="1.5" stroke-miterlimit="10"/>
</svg>
