<?xml version="1.0" encoding="UTF-8"?>
<svg id="Layer_1" xmlns="http://www.w3.org/2000/svg" version="1.1" viewBox="0 0 33.9 18.2">
  <!-- Generator: Adobe Illustrator 29.6.1, SVG Export Plug-In . SVG Version: 2.1.1 Build 9)  -->
  <defs>
    <style>
      .st0 {
        fill: #010101;
      }

      .st1 {
        fill: #fff;
      }
    </style>
  </defs>
  <path class="st1" d="M33.9,0v18.2H0V0h33.9ZM31.7,10.3c.3-.1.8,0,1-.3s0-1.7,0-2v-.3l-9.6-3.7-3.8.7L10.2,1.2c-2.8.8-5.7,1.4-8.5,2.3s-.4,0-.5.3,0,1.5,0,1.7c0,.7,1,.5,1.4.7v10.4c0,.2.1.2.3.3h28.6c.2,0,.2-.2.3-.3v-6.4l-.1.1Z"/>
  <path class="st0" d="M31.7,10.3v6.4c0,.2-.1.3-.3.3H2.8c-.1,0-.3-.1-.3-.3V6.3c-.5-.2-1.4,0-1.4-.7v-1.7c0-.2.2-.2.5-.3,2.7-.9,5.7-1.5,8.5-2.3l9.1,3.5,3.8-.7,9.6,3.7v2.3c-.1.4-.6.2-1,.3l.1-.1ZM9.8,2L1.9,4.2v1.1l7.9-1.9v-1.4h0ZM10.4,2v1.4h.1l5.6,2,1.9-.3-7.6-3v-.1ZM7.9,16.4h1.7V4.5l-6.2,1.5v10.4h1.2v-5c-.2,0-.4,0-.4-.2v-2.3c0-.2,0-.1.1-.2l4-.6c.1,0,.3.1.3.3v2.4c0,.3-.4.2-.6.3v5.3h-.1ZM10.2,4.6v1.9l3.8-.7-3.8-1.2ZM22.6,4.7l-12.1,2.5v1.4l12.1-1.9v-2ZM32.1,9.4v-1.2l-8.8-3.3v1.9l8.8,2.6ZM22.1,7.7l-10.9,1.7v7h10.9V7.7ZM31.1,16.4v-6.2l-8.4-2.5v8.6h8.4v.1ZM7.3,11.1l-2.2.2v5.1h2.2v-5.3Z"/>
  <path class="st1" d="M22.1,7.7v8.7h-11.8v-7l11.8-1.7ZM18.3,10.4c-.1.1,0,2.5,0,2.8,0,0,.2.1.3.1h1.4c.3,0,.2,0,.3-.2v-2.8s-.1-.1-.2-.1h-1.3c-.2,0-.4,0-.4.1l-.1.1Z"/>
  <polygon class="st1" points="31.1 16.4 22.7 16.4 22.7 7.8 31.1 10.2 31.1 16.4"/>
  <path class="st1" d="M7.9,16.4v-5.3c.2-.2.5,0,.6-.3s0-1.7,0-1.9-.2-.3-.3-.3l-4,.6s-.1,0-.1.2v1.8c0,.2.3.3.4.2v5h-1.2V6l6.2-1.5v11.8h-1.6v.1Z"/>
  <polygon class="st1" points="22.6 4.7 22.6 6.7 10.3 8.6 10.3 7.2 22.6 4.7"/>
  <polygon class="st1" points="32.1 9.4 23.3 6.8 23.3 4.8 32.1 8.2 32.1 9.4"/>
  <polygon class="st1" points="7.3 11.1 7.3 16.4 5.1 16.4 5.1 11.3 7.3 11.1"/>
  <polygon class="st1" points="9.8 2 9.8 3.4 1.8 5.3 1.8 4.2 9.8 2"/>
  <polygon class="st1" points="10.4 2 18 5 16.1 5.3 10.6 3.5 10.4 3.4 10.4 2"/>
  <polygon class="st1" points="10.2 4.6 14 5.8 10.2 6.5 10.2 4.6"/>
</svg>