<svg width="34" height="19" viewBox="0 0 34 19" fill="none" xmlns="http://www.w3.org/2000/svg">
<g clip-path="url(#clip0_2120_1315)">
<path d="M31.6996 10.2998V16.6998C31.6996 16.8998 31.5996 16.9998 31.3996 16.9998H2.79961C2.69961 16.9998 2.49961 16.8998 2.49961 16.6998V6.2998C1.99961 6.0998 1.09961 6.2998 1.09961 5.5998V3.8998C1.09961 3.6998 1.29961 3.6998 1.59961 3.5998C4.29961 2.6998 7.29961 2.0998 10.0996 1.2998L19.1996 4.7998L22.9996 4.0998L32.5996 7.7998V10.0998C32.4996 10.4998 31.9996 10.2998 31.5996 10.3998L31.6996 10.2998ZM9.79961 1.9998L1.89961 4.1998V5.2998L9.79961 3.3998V1.9998ZM10.3996 1.9998V3.3998H10.4996L16.0996 5.39981L17.9996 5.0998L10.3996 2.0998V1.9998ZM7.89961 16.3998H9.59961V4.4998L3.39961 5.9998V16.3998H4.59961V11.3998C4.39961 11.3998 4.19961 11.3998 4.19961 11.1998V8.8998C4.19961 8.6998 4.19961 8.7998 4.29961 8.6998L8.29961 8.0998C8.39961 8.0998 8.59961 8.1998 8.59961 8.3998V10.7998C8.59961 11.0998 8.19961 10.9998 7.99961 11.0998V16.3998H7.89961ZM10.1996 4.5998V6.4998L13.9996 5.7998L10.1996 4.5998ZM22.5996 4.6998L10.4996 7.1998V8.5998L22.5996 6.6998V4.6998ZM32.0996 9.3998V8.1998L23.2996 4.8998V6.7998L32.0996 9.3998ZM22.0996 7.6998L11.1996 9.3998V16.3998H22.0996V7.6998ZM31.0996 16.3998V10.1998L22.6996 7.6998V16.2998H31.0996V16.3998ZM7.29961 11.0998L5.09961 11.2998V16.3998H7.29961V11.0998Z" fill="#010101"/>
<path d="M22.0998 7.7002V16.4002H10.2998V9.4002L22.0998 7.7002ZM18.2998 10.4002C18.1998 10.5002 18.2998 12.9002 18.2998 13.2002C18.2998 13.2002 18.4998 13.3002 18.5998 13.3002H19.9998C20.2998 13.3002 20.1998 13.3002 20.2998 13.1002V10.3002C20.2998 10.3002 20.1998 10.2002 20.0998 10.2002H18.7998C18.5998 10.2002 18.3998 10.2002 18.3998 10.3002L18.2998 10.4002Z" fill="white"/>
<path d="M31.1002 16.3998H22.7002V7.7998L31.1002 10.1998V16.3998Z" fill="white"/>
<path d="M7.89981 16.4V11.1C8.09981 10.9 8.3998 11.1 8.4998 10.8C8.5998 10.5 8.4998 9.1 8.4998 8.9C8.4998 8.7 8.2998 8.6 8.1998 8.6L4.1998 9.2C4.1998 9.2 4.0998 9.2 4.0998 9.4V11.2C4.0998 11.4 4.3998 11.5 4.4998 11.4V16.4H3.2998V6L9.4998 4.5V16.3H7.89981V16.4Z" fill="white"/>
<path d="M22.5998 4.7002V6.7002L10.2998 8.6002V7.2002L22.5998 4.7002Z" fill="white"/>
<path d="M32.0998 9.3998L23.2998 6.7998V4.7998L32.0998 8.1998V9.3998Z" fill="white"/>
<path d="M7.29961 11.1001V16.4001H5.09961V11.3001L7.29961 11.1001Z" fill="white"/>
<path d="M9.7998 2V3.4L1.7998 5.3V4.2L9.7998 2Z" fill="white"/>
<path d="M10.4004 2L18.0004 5L16.1004 5.3L10.6004 3.5L10.4004 3.4V2Z" fill="white"/>
<path d="M10.2002 4.6001L14.0002 5.8001L10.2002 6.5001V4.6001Z" fill="white"/>
</g>
<defs>
<clipPath id="clip0_2120_1315">
<rect width="33.9" height="18.2" fill="white"/>
</clipPath>
</defs>
</svg>
