<svg width="36" height="36" viewBox="0 0 36 36" fill="none" xmlns="http://www.w3.org/2000/svg">
<path d="M4.48156 11.6401C4.41156 11.5801 4.35156 11.5801 4.28156 11.5801C4.21156 11.5801 4.15156 11.5801 4.08156 11.6401L2.26156 13.3901C2.13156 13.4501 2.13156 13.6401 2.26156 13.7701L6.10156 17.4701C6.17156 17.5301 6.23156 17.5301 6.30156 17.5301C6.37156 17.5301 6.43156 17.5301 6.50156 17.4701L8.32156 15.7201C8.45156 15.6601 8.45156 15.4701 8.32156 15.3401L4.48156 11.6401Z" stroke="#231F20" stroke-width="1.5" stroke-miterlimit="10"/>
<path d="M31.8409 26.5799C29.8909 24.6999 27.0809 22.4499 24.4109 20.2499C22.5909 18.8099 20.8909 17.4299 19.4609 16.1799L17.1309 18.3599L19.9809 15.6199C20.1109 15.5599 20.1109 15.3699 19.9809 15.2399L18.8109 14.1099C18.7409 14.0499 18.6809 14.0499 18.6109 14.0499C18.5409 14.0499 18.4809 14.0499 18.4109 14.1099L17.6909 14.7999L13.4209 10.6999L15.2109 8.97994C15.3409 8.91994 15.3409 8.72994 15.2109 8.59994L14.7509 8.15994L18.6609 4.39994C18.7309 4.33994 18.7909 4.20994 18.7309 4.14994C18.6609 4.08994 18.6009 4.01994 18.5309 3.95994C16.0509 3.07994 13.5109 3.39994 11.0409 4.83994C11.0009 4.83994 10.9609 4.87994 10.9309 4.93994L5.37094 10.2899C5.24094 10.3499 5.24094 10.5399 5.37094 10.6699L9.21094 14.3699C9.28094 14.4299 9.34094 14.4299 9.41094 14.4299C9.48094 14.4299 9.54094 14.3699 9.61094 14.3699L11.4009 12.6499L15.6709 16.7499L14.9509 17.4399C14.8209 17.4999 14.8209 17.6899 14.9509 17.8199L16.1209 18.9499C16.1909 19.0099 16.2509 19.0099 16.3209 19.0099C16.3909 19.0099 16.4509 18.9499 16.5209 18.9499L17.1109 18.3899C18.4109 19.8299 19.8509 21.3999 21.3409 23.1499C23.6209 25.7799 25.9709 28.4099 27.9209 30.3499C28.4409 30.8499 29.1609 31.0999 29.8709 31.0999C30.5809 31.0999 31.3009 30.8499 31.8209 30.3499C32.8609 29.2799 32.8609 27.6599 31.8209 26.5899L31.8409 26.5799Z" stroke="#231F20" stroke-width="1.5" stroke-miterlimit="10"/>
</svg>
