<svg width="36" height="36" viewBox="0 0 36 36" fill="none" xmlns="http://www.w3.org/2000/svg">
<path d="M16.0694 25.62C14.2494 25.62 12.5194 24.95 11.1494 23.6C8.42937 20.91 8.42937 16.5 11.1494 13.73L15.9194 9.01997C16.0694 8.86997 16.2994 8.86997 16.3694 9.01997L25.8194 18.37C25.9694 18.52 25.9694 18.74 25.8194 18.82L21.0494 23.61C19.6894 24.96 17.8694 25.63 16.0594 25.63L16.0694 25.62Z" stroke="#231F20" stroke-width="1.5" stroke-miterlimit="10"/>
<path d="M20.03 12.4901C19.95 12.4901 19.88 12.4901 19.8 12.4201L17.83 10.4801C17.75 10.4101 17.75 10.3301 17.75 10.2601C17.75 10.1901 17.75 10.1101 17.83 10.0401L22.52 5.40008C22.6 5.33008 22.67 5.33008 22.75 5.33008C22.83 5.33008 22.9 5.33008 22.98 5.40008L24.95 7.34008C25.1 7.49008 25.1 7.71008 24.95 7.79008L20.26 12.4301C20.18 12.5001 20.11 12.5001 20.03 12.5001V12.4901Z" stroke="#231F20" stroke-width="1.5" stroke-miterlimit="10"/>
<path d="M24.7227 17.2C24.6427 17.2 24.5727 17.2 24.4927 17.13L22.5227 15.19C22.3727 15.04 22.3727 14.82 22.5227 14.74L27.2127 10.1C27.2927 10.03 27.3627 10.03 27.4427 10.03C27.5227 10.03 27.5927 10.03 27.6727 10.1L29.6427 12.04C29.7927 12.19 29.7927 12.41 29.6427 12.49L24.9527 17.13C24.8727 17.13 24.8027 17.2 24.7227 17.2Z" stroke="#231F20" stroke-width="1.5" stroke-miterlimit="10"/>
<path d="M16.072 16.9502C15.622 16.9502 15.162 17.1002 14.862 17.4702C14.562 17.7702 14.332 18.2202 14.332 18.6702C14.332 19.1202 14.482 19.5702 14.862 19.8702C15.162 20.1702 15.622 20.3902 16.072 20.3902C16.522 20.3902 16.982 20.2402 17.282 19.8702C17.962 19.2002 17.962 18.1502 17.282 17.4802C16.982 17.1802 16.522 16.9602 16.072 16.9602V16.9502Z" stroke="#231F20" stroke-width="1.5" stroke-miterlimit="10"/>
<path d="M8.76172 30.63C8.76172 30.46 8.91172 26.26 12.3417 24.48" stroke="#231F20" stroke-width="1.5" stroke-miterlimit="10"/>
<path d="M6.62109 28.9701C6.62109 28.8001 7.21109 24.3601 10.6411 22.5801" stroke="#231F20" stroke-width="1.5" stroke-miterlimit="10"/>
</svg>
