<svg width="36" height="36" viewBox="0 0 36 36" fill="none" xmlns="http://www.w3.org/2000/svg">
<path d="M21.9395 10.1101L34.7595 16.7401C34.8895 16.8001 34.9495 16.9301 34.8895 17.0501C34.8895 17.1701 34.7595 17.2401 34.6395 17.2401H30.9995V26.6601C31.0595 26.7801 30.9395 26.9101 30.7495 26.9101H28.5595C28.4295 26.9101 28.3095 26.7901 28.3095 26.6601V17.1801H26.4895C26.3595 17.1801 26.2395 17.0601 26.2395 16.9301V15.3901H10.7995V16.9301C10.7995 17.0501 10.6695 17.1801 10.5495 17.1801H8.72953V26.6001C8.72953 26.7201 8.59953 26.8501 8.47953 26.8501H6.21953C6.08953 26.8501 5.96953 26.7301 5.96953 26.6001V17.1801H2.26953C2.13953 17.1801 2.01953 17.1201 2.01953 16.9901C2.01953 16.8601 2.01953 16.7401 2.14953 16.6801L14.9395 10.1701C14.9995 10.1701 14.9995 10.1101 15.0695 10.1101H21.9495H21.9395Z" stroke="#231F20" stroke-width="1.5" stroke-miterlimit="10"/>
<path d="M23.3684 24.8902H13.1484C13.0184 24.8902 12.8984 24.7702 12.8984 24.6402V21.9102C12.8984 21.3502 13.3384 20.9802 13.8384 20.9802H22.6784C23.2384 20.9802 23.6184 21.4102 23.6184 21.9102V24.6402C23.6784 24.7602 23.5584 24.8902 23.3684 24.8902Z" stroke="#231F20" stroke-width="1.5" stroke-miterlimit="10"/>
<path d="M22.3591 20.96H14.2091C14.0791 20.96 14.0191 20.9 13.9591 20.84C13.8991 20.78 13.8991 20.65 13.9591 20.59L15.0891 18.42C15.1491 18.3 15.2191 18.3 15.3391 18.3H21.2991C21.4291 18.3 21.4891 18.36 21.5491 18.42L22.6791 20.59C22.7391 20.65 22.7391 20.78 22.6791 20.84C22.5491 20.9 22.4891 20.96 22.3691 20.96H22.3591Z" stroke="#231F20" stroke-width="1.5" stroke-miterlimit="10"/>
<path d="M15.5895 27.0102H14.2695C14.1395 27.0102 14.0195 26.8902 14.0195 26.7602V25.2102C14.0195 25.0902 14.1495 24.9602 14.2695 24.9602H15.5895C15.7195 24.9602 15.8395 25.0802 15.8395 25.2102V26.7602C15.8995 26.8802 15.7795 27.0102 15.5895 27.0102Z" stroke="#231F20" stroke-width="1.5" stroke-miterlimit="10"/>
<path d="M22.3005 27.0102H20.9805C20.8505 27.0102 20.7305 26.8902 20.7305 26.7602V25.2102C20.7305 25.0902 20.8605 24.9602 20.9805 24.9602H22.3005C22.4305 24.9602 22.5505 25.0802 22.5505 25.2102V26.7602C22.6105 26.8802 22.4905 27.0102 22.3005 27.0102Z" stroke="#231F20" stroke-width="1.5" stroke-miterlimit="10"/>
<path d="M14.9688 22.6602C14.8388 22.6602 14.7188 22.7802 14.7188 22.9102C14.7188 23.0402 14.8488 23.1602 14.9688 23.1602C15.0887 23.1602 15.2188 23.0402 15.2188 22.9102C15.1588 22.7902 15.0887 22.6602 14.9688 22.6602Z" stroke="#231F20" stroke-width="1.5" stroke-miterlimit="10"/>
<path d="M21.6094 22.6602C21.4794 22.6602 21.3594 22.7802 21.3594 22.9102C21.3594 23.0402 21.4894 23.1602 21.6094 23.1602C21.7294 23.1602 21.8594 23.0402 21.8594 22.9102C21.8594 22.7802 21.7294 22.6602 21.6094 22.6602Z" stroke="#231F20" stroke-width="1.5" stroke-miterlimit="10"/>
</svg>
