<svg width="19" height="18" viewBox="0 0 19 18" fill="none" xmlns="http://www.w3.org/2000/svg">
<path d="M1.13951 0.9C1.23951 2.6 3.13951 3.8 4.73951 2.8C6.33951 1.8 5.73951 1.6 5.83951 0.9C5.93951 0.2 5.83951 0.3 6.13951 0.2H18.3395C18.9395 0.3 18.5395 1.6 18.3395 1.9C17.9395 2.9 16.7395 4 15.6395 4H14.8395V8C14.7395 9.6 12.7395 9.9 11.7395 10.7V16.2C11.7395 16.6 11.3395 16.8 10.9395 17C10.1395 17.3 8.23951 17.3 8.13951 16.2V9.2C8.43951 7.9 10.3395 7.5 11.2395 6.8V4H3.03951C1.93951 4 0.739512 2.9 0.339512 1.9C-0.0604881 0.9 -0.160488 0.2 0.339512 0H4.73951C5.23951 0 5.03951 0.8 4.73951 0.8H1.03951L1.13951 0.9ZM17.7395 1H6.73951C6.53951 1.4 6.53951 1.8 6.33951 2.1C6.13951 2.4 5.93951 2.8 5.63951 3.1H11.8395C11.8395 3.1 12.1395 3.4 12.1395 3.5V4.5C12.5395 4.7 13.6395 4.8 13.9395 4.5C14.2395 4.2 13.8395 3.5 14.1395 3.3C14.4395 3.1 15.0395 3.3 15.3395 3.3C16.5395 3.3 17.4395 2.4 17.6395 1.2L17.7395 1ZM14.1395 5.4C13.5395 5.5 12.9395 5.6 12.2395 5.4V7.1C12.2395 7.1 12.1395 7.4 12.0395 7.4C11.4395 7.9 9.73951 8.5 9.33951 9C8.93951 9.5 9.23951 9.2 9.13951 9.3V16.1C9.73951 16.3 10.3395 16.3 10.9395 16.1V10.2L11.1395 10C11.8395 9.5 12.9395 9.1 13.6395 8.6C14.3395 8.1 14.0395 8.2 14.0395 7.9V5.3L14.1395 5.4Z" fill="black"/>
</svg>
