<svg width="36" height="36" viewBox="0 0 36 36" fill="none" xmlns="http://www.w3.org/2000/svg">
<path d="M6.28136 6.2099H11.8314C12.3014 6.2099 12.6614 5.0399 11.9114 4.8999L5.23136 4.9599C4.53136 5.2599 5.05136 7.2699 5.28136 7.8299C5.84136 9.2599 7.68136 10.9799 9.28136 10.9799H21.5714V15.1299C20.2514 16.1999 17.3514 16.8799 17.0014 18.7799L16.9614 29.2699C17.1214 30.8899 20.0914 30.8999 21.2414 30.4999C21.7814 30.3099 22.2914 29.9499 22.3914 29.3499V21.0599C23.9514 19.7699 26.8714 19.3199 27.0814 16.9399V10.9799H28.2714C29.9114 10.9799 31.7414 9.2399 32.3014 7.7699C32.5214 7.1999 33.0514 5.3499 32.2014 5.1599L13.8114 5.1399C13.2614 5.3099 13.4214 5.7699 13.3514 6.1599C13.1114 7.3299 12.7114 8.3999 11.6614 9.0699C9.30136 10.5899 6.50136 8.8399 6.29136 6.2099H6.28136Z" stroke="#231F20" stroke-width="1.5" stroke-miterlimit="10"/>
<path d="M6.28094 6.2099C6.49094 8.8399 9.29094 10.5899 11.6509 9.0699C12.7009 8.3999 13.1009 7.3199 13.3409 6.1599C13.4209 5.7699 13.2609 5.3199 13.8009 5.1399L32.1909 5.1599C33.0409 5.3499 32.5009 7.1999 32.2909 7.7699C31.7309 9.2399 29.9109 10.9799 28.2609 10.9799H27.0709V16.9399C26.8709 19.3199 23.9509 19.7699 22.4009 21.0599V29.3499C22.2909 29.9499 21.7709 30.2999 21.2309 30.4999C20.0909 30.9099 17.1109 30.8899 16.9509 29.2699L16.9909 18.7799C17.3409 16.8799 20.2309 16.1999 21.5609 15.1299V10.9799H9.27094C7.67094 10.9799 5.83094 9.2599 5.27094 7.8299C5.05094 7.2699 4.52094 5.2599 5.22094 4.9599L11.9009 4.8999C12.6509 5.0399 12.2909 6.2099 11.8209 6.2099H6.27094H6.28094Z" stroke="#231F20" stroke-width="1.5" stroke-miterlimit="10"/>
</svg>
