<svg width="36" height="36" viewBox="0 0 36 36" fill="none" xmlns="http://www.w3.org/2000/svg">
<path d="M26.74 10.22H11.12C9.94916 10.22 9 11.1691 9 12.34V13.19C9 14.3608 9.94916 15.31 11.12 15.31H26.74C27.9108 15.31 28.86 14.3608 28.86 13.19V12.34C28.86 11.1691 27.9108 10.22 26.74 10.22Z" stroke="#231F20" stroke-width="1.5" stroke-miterlimit="10"/>
<path d="M16.4411 15.27V19.39H11.1211V15.27" stroke="#231F20" stroke-width="1.5" stroke-miterlimit="10"/>
<path d="M25.6611 6.52002V10.22H21.3711V6.52002" stroke="#231F20" stroke-width="1.5" stroke-miterlimit="10"/>
<path d="M27.2694 4.36011H19.7694C19.2668 4.36011 18.8594 4.76753 18.8594 5.27011V5.66011C18.8594 6.16269 19.2668 6.57011 19.7694 6.57011H27.2694C27.772 6.57011 28.1794 6.16269 28.1794 5.66011V5.27011C28.1794 4.76753 27.772 4.36011 27.2694 4.36011Z" stroke="#231F20" stroke-width="1.5" stroke-miterlimit="10"/>
<path d="M16.3387 27.6101C16.3387 29.0201 15.1887 30.1701 13.7787 30.1701C12.3687 30.1701 11.2188 29.0201 11.2188 27.6101C11.2188 26.2001 13.7787 21.3101 13.7787 21.3101C13.7787 21.3101 16.3387 26.1901 16.3387 27.6101Z" stroke="#231F20" stroke-width="1.5" stroke-miterlimit="10"/>
</svg>
