<?xml version="1.0" encoding="UTF-8"?>
<svg id="Layer_1" xmlns="http://www.w3.org/2000/svg" version="1.1" viewBox="0 0 20.7 17">
  <!-- Generator: Adobe Illustrator 29.6.1, SVG Export Plug-In . SVG Version: 2.1.1 Build 9)  -->
  <defs>
    <style>
      .st0 {
        fill: #010101;
      }

      .st1 {
        fill: #fff;
      }
    </style>
  </defs>
  <path class="st1" d="M20.7,0v17H0V0h20.7ZM6.7,2c-.2-.4-.3-1-.5-1.4s0-.2-.2-.2h-3.4c-.1,0-.2,0-.3.2-.2.4-.4,1-.6,1.4-.3,0-1.3-.2-1.4.2v14.1c0,.1,0,.3.2.3h1.7c.2-.1.5-1.3.7-1.6h2.8c.2.3.5,1.5.7,1.6s0,0,.2,0h1.6c.4,0,.2,0,.3-.2.2-.4.4-1,.6-1.4h2.8c.2.3.5,1.4.7,1.6s.1,0,.2,0h1.6c.4,0,.2,0,.3-.2.2-.4.4-1,.6-1.4h2.8c.2.3.5,1.4.7,1.6s0,0,.2,0h1.3c.3,0,.2,0,.3-.2V2.2c0-.6-1.2-.2-1.4-.3-.2-.4-.3-1.1-.6-1.4s-.2-.2-.3-.2h-3.3s-.1.1-.2.2c-.2.4-.4,1-.5,1.4h-1.2c-.2-.4-.3-1-.5-1.4s0-.2-.2-.2h-3.5c-.2.1-.5,1.3-.7,1.6h-1.2l-.3.1Z"/>
  <path class="st0" d="M6.7,2h1.2c.1-.3.5-1.4.7-1.6s0,0,.1,0h3.4c.1,0,.2.1.2.2.2.4.4,1,.5,1.4h1.2c.2-.4.3-1,.5-1.4s0-.1.2-.2h3.3q.2,0,.3.2c.2.4.4,1,.6,1.4.2.1,1.5-.3,1.4.3v14.2c-.1.1-.2.2-.3.2h-1.3c-.3,0-.1,0-.2,0-.2-.1-.5-1.3-.7-1.6h-2.8c-.2.4-.3,1.1-.6,1.4s-.1.2-.3.2h-1.6c-.4,0-.1,0-.2,0-.2-.1-.5-1.3-.7-1.6h-2.8c-.2.4-.3,1.1-.6,1.4s-.1.2-.3.2h-1.6c-.4,0-.1,0-.2,0-.2-.1-.5-1.3-.7-1.6h-2.8c-.2.3-.5,1.5-.7,1.6s0,0-.2,0H.2C0,16.7,0,16.5,0,16.4V2.3c.1-.4,1.1-.1,1.4-.2.2-.4.3-1.1.6-1.4s.1-.2.3-.2h3.4c.1,0,.1.1.2.2.2.4.4,1,.5,1.4l.3-.1ZM5.5,1.1h-2.6v13.4h2.6V1.1ZM11.7,1.1h-2.6v13.4h2.6V1.1ZM17.8,1.1h-2.6v13.4h2.6V1.1ZM1.8,16.1l.5-1.4V2.5s-.1.2-.2.2h-1.1v13.4s.8,0,.8,0ZM6.2,2.5v12.2l.5,1.3h1.2l.5-1.3V2.5l-.1.1c-.1.1,0,0-.1,0h-1.7c-.4,0-.1,0-.2,0s0-.1-.1-.2v.1ZM12.3,2.5v12.2l.5,1.3h1.2l.5-1.3V2.5l-.1.1c-.1.1,0,0-.1,0h-1.7c-.4,0-.1,0-.2,0s0-.1-.1-.2v.1ZM19.8,2.7h-1.1l-.2-.2v12.2l.5,1.4h.8s0-13.4,0-13.4Z"/>
  <path class="st1" d="M5.5,1.1v13.4h-2.6V1.1h2.6ZM4.1,3.3c-.8.1-.6,1.4.3,1.3s.6-1.4-.3-1.3ZM4.1,10.9c-.8.1-.6,1.4.3,1.3s.6-1.4-.3-1.3Z"/>
  <path class="st1" d="M11.7,1.1v13.4h-2.6V1.1h2.6ZM10.3,3.3c-.8.1-.6,1.4.3,1.3s.6-1.4-.3-1.3ZM10.3,10.9c-.8.1-.6,1.4.3,1.3s.6-1.4-.3-1.3Z"/>
  <path class="st1" d="M17.8,1.1v13.4h-2.6V1.1h2.6ZM16.4,3.3c-.8.1-.6,1.4.3,1.3s.6-1.4-.3-1.3ZM16.4,10.9c-.8.1-.6,1.4.3,1.3s.6-1.4-.3-1.3Z"/>
  <path class="st1" d="M6.2,2.5s0,.1.1.2.1,0,.2,0h1.7c.4,0,.1,0,.1,0,0,0,0-.1.1-.1v12.2l-.5,1.3h-1.2l-.5-1.3V2.5Z"/>
  <path class="st1" d="M12.3,2.5s0,.1.1.2.1,0,.2,0h1.7c.4,0,.1,0,.1,0,0,0,0-.1.1-.1v12.2l-.5,1.3h-1.2l-.5-1.3V2.5Z"/>
  <path class="st1" d="M1.8,16.1h-.8V2.7h1.1l.2-.2v12.2s-.5,1.4-.5,1.4Z"/>
  <polygon class="st1" points="19.8 2.7 19.8 16.1 19 16.1 18.5 14.7 18.5 2.5 18.7 2.7 19.8 2.7"/>
  <path class="st0" d="M4.1,3.3c.9-.1,1,1.1.3,1.3s-1-1.1-.3-1.3Z"/>
  <path class="st0" d="M4.1,10.9c.9-.1,1,1.1.3,1.3s-1-1.1-.3-1.3Z"/>
  <path class="st0" d="M10.3,3.3c.9-.1,1,1.1.3,1.3s-1-1.1-.3-1.3Z"/>
  <path class="st0" d="M10.3,10.9c.9-.1,1,1.1.3,1.3s-1-1.1-.3-1.3Z"/>
  <path class="st0" d="M16.4,3.3c.9-.1,1,1.1.3,1.3s-1-1.1-.3-1.3Z"/>
  <path class="st0" d="M16.4,10.9c.9-.1,1,1.1.3,1.3s-1-1.1-.3-1.3Z"/>
</svg>