<svg width="36" height="36" viewBox="0 0 36 36" fill="none" xmlns="http://www.w3.org/2000/svg">
<path d="M29.6584 6.40008H27.5584C27.2384 5.65008 26.9984 4.68008 26.6284 3.98008C26.5284 3.80008 26.4584 3.65008 26.2384 3.60008H20.3284C20.2384 3.60008 20.1584 3.64008 20.0784 3.69008C19.7284 3.95008 19.1784 5.90008 18.9384 6.40008H16.8384C16.5184 5.65008 16.2784 4.68008 15.9084 3.98008C15.8184 3.82008 15.7584 3.68008 15.5684 3.61008L9.66844 3.58008C9.41844 3.61008 9.32844 3.68008 9.19844 3.88008C8.79844 4.51008 8.54844 5.68008 8.21844 6.39008C7.66844 6.52008 5.98844 6.11008 5.78844 6.75008L5.75844 31.4301C5.74844 31.6501 5.85844 31.8901 6.05844 31.9701C6.27844 32.0601 8.27844 32.0601 8.61844 32.0201C8.72844 32.0101 8.79844 31.9901 8.88844 31.9401C9.26844 31.7301 9.81844 29.6601 10.1084 29.1901H14.9584C15.2384 29.6601 15.7984 31.7201 16.1784 31.9401C16.2784 31.9901 16.3484 32.0101 16.4484 32.0201C17.0984 32.1001 18.6084 32.0801 19.2784 32.0201C19.5684 31.9901 19.6584 31.9601 19.8184 31.7101C20.2184 31.0701 20.4684 29.9101 20.7984 29.2001H25.6884C25.9684 29.6601 26.5284 31.7201 26.9084 31.9301C27.0284 32.0001 27.1184 32.0001 27.2484 32.0101" stroke="#231F20" stroke-width="1.5" stroke-miterlimit="10"/>
<path d="M12.2898 8.67997C10.9298 8.89997 11.1598 11.16 12.7498 10.9C14.1098 10.68 13.8798 8.41997 12.2898 8.67997ZM12.2898 21.89C10.9298 22.11 11.1598 24.37 12.7498 24.11C14.1098 23.89 13.8798 21.63 12.2898 21.89Z" stroke="#231F20" stroke-width="1.5" stroke-miterlimit="10"/>
<path d="M23.0085 8.67997C21.6485 8.89997 21.8785 11.16 23.4685 10.9C24.8285 10.68 24.5985 8.41997 23.0085 8.67997ZM23.0085 21.89C21.6485 22.11 21.8785 24.37 23.4685 24.11C24.8285 23.89 24.5985 21.63 23.0085 21.89Z" stroke="#231F20" stroke-width="1.5" stroke-miterlimit="10"/>
<path d="M12.2898 8.67997C13.8798 8.41997 14.1098 10.68 12.7498 10.9C11.1598 11.16 10.9298 8.89997 12.2898 8.67997Z" stroke="#231F20" stroke-width="1.5" stroke-miterlimit="10"/>
<path d="M12.2898 21.8899C13.8798 21.6299 14.1098 23.8899 12.7498 24.1099C11.1598 24.3699 10.9298 22.1099 12.2898 21.8899Z" stroke="#231F20" stroke-width="1.5" stroke-miterlimit="10"/>
<path d="M23.0085 8.67997C24.5985 8.41997 24.8285 10.68 23.4685 10.9C21.8785 11.16 21.6485 8.89997 23.0085 8.67997Z" stroke="#231F20" stroke-width="1.5" stroke-miterlimit="10"/>
<path d="M23.0085 21.8899C24.5985 21.6299 24.8285 23.8899 23.4685 24.1099C21.8785 24.3699 21.6485 22.1099 23.0085 21.8899Z" stroke="#231F20" stroke-width="1.5" stroke-miterlimit="10"/>
<path d="M8.21094 6.3999V29.1999" stroke="#231F20" stroke-width="1.5" stroke-miterlimit="10"/>
<path d="M17.9414 6.3999V29.1999" stroke="#231F20" stroke-width="1.5" stroke-miterlimit="10"/>
<path d="M27.6914 6.3999V29.1999" stroke="#231F20" stroke-width="1.5" stroke-miterlimit="10"/>
<path d="M5.87109 29.1399H30.0611" stroke="#231F20" stroke-width="1.5" stroke-miterlimit="10"/>
<path d="M20.2109 3.61008L26.1109 3.58008C26.3609 3.61008 26.4509 3.68008 26.5809 3.88008C26.9809 4.51008 27.2309 5.68008 27.5609 6.39008C28.1109 6.52008 29.7909 6.11008 29.9909 6.75008L30.0209 31.4301C30.0309 31.6501 29.9209 31.8901 29.7209 31.9701C29.5009 32.0601 27.5009 32.0601 27.1609 32.0201C27.0509 32.0101 26.9809 31.9901 26.8909 31.9401C26.5109 31.7301 25.9609 29.6601 25.6709 29.1901H20.8209" stroke="#231F20" stroke-width="1.5" stroke-miterlimit="10"/>
</svg>
