<svg width="36" height="36" viewBox="0 0 36 36" fill="none" xmlns="http://www.w3.org/2000/svg">
<path d="M22.46 10.6399H14.2C13.97 10.6399 13.75 10.4199 13.75 10.1899V4.5999C13.75 4.3799 13.98 4.1499 14.2 4.1499H22.46C22.69 4.1499 22.91 4.3699 22.91 4.5999V10.1899C22.91 10.4099 22.68 10.6399 22.46 10.6399Z" stroke="#231F20" stroke-width="1.5" stroke-miterlimit="10"/>
<path d="M26.1388 10.6399H23.4188C23.1888 10.6399 22.9688 10.4199 22.9688 10.1899V4.5999C22.9688 4.3799 23.1988 4.1499 23.4188 4.1499H26.1388C26.3688 4.1499 26.5888 4.3699 26.5888 4.5999V10.1899C26.6988 10.4099 26.4788 10.6399 26.1388 10.6399Z" stroke="#231F20" stroke-width="1.5" stroke-miterlimit="10"/>
<path d="M13.1312 9.74991H7.25125C7.02125 9.74991 6.91125 9.63991 6.80125 9.52991C6.69125 9.41991 6.69125 9.18991 6.80125 9.07991C7.93125 6.50991 10.0813 4.82991 13.1413 4.15991C13.2513 4.15991 13.4812 4.15991 13.5912 4.26991C13.7012 4.37991 13.8212 4.48991 13.8212 4.71991V9.30991C13.7112 9.52991 13.4813 9.75991 13.1413 9.75991L13.1312 9.74991Z" stroke="#231F20" stroke-width="1.5" stroke-miterlimit="10"/>
<path d="M20.1788 31.4899H16.6688C16.4388 31.4899 16.2188 31.2999 16.2188 31.1099V25.5399C16.2188 25.3499 16.4488 25.1599 16.6688 25.1599H20.1788C20.4088 25.1599 20.6287 25.3499 20.6287 25.5399V31.1099C20.6287 31.2999 20.3988 31.4899 20.1788 31.4899Z" stroke="#231F20" stroke-width="1.5" stroke-miterlimit="10"/>
<path d="M20.0811 20.73H16.5711C16.3411 20.73 16.1211 20.51 16.1211 20.28V11.22C16.1211 11 16.3511 10.77 16.5711 10.77H20.0811C20.3111 10.77 20.5311 10.99 20.5311 11.22V20.28C20.5311 20.5 20.3011 20.73 20.0811 20.73Z" stroke="#231F20" stroke-width="1.5" stroke-miterlimit="10"/>
<path d="M6.74056 27.1399C4.93056 27.1399 3.35056 26.0199 2.67056 24.3399C2.56056 24.2299 2.67056 23.9999 2.78056 23.8899C2.89056 23.7799 3.01056 23.6699 3.23056 23.6699H7.30056V22.0999H3.24056C3.13056 22.0999 2.90056 21.9899 2.79056 21.8799C2.68056 21.7699 2.68056 21.5399 2.68056 21.4299C3.25056 19.7499 4.94056 18.6299 6.75056 18.6299C9.13056 18.6299 11.0506 20.5299 11.0506 22.8799C11.1606 25.2299 9.13056 27.1299 6.75056 27.1299L6.74056 27.1399Z" stroke="#231F20" stroke-width="1.5" stroke-miterlimit="10"/>
<path d="M30.0305 27.29C27.6505 27.29 25.7305 25.39 25.7305 23.04C25.7305 20.69 27.6505 18.79 30.0305 18.79C31.8405 18.79 33.4205 19.91 34.1005 21.59C34.2105 21.7 34.1005 21.93 33.9905 22.04C33.8805 22.15 33.7605 22.26 33.5405 22.26H29.4705V23.83H33.5405C33.6505 23.83 33.8805 23.94 33.9905 24.05C34.1005 24.16 34.1005 24.39 34.1005 24.5C33.4205 26.18 31.8405 27.3 30.0305 27.3V27.29Z" stroke="#231F20" stroke-width="1.5" stroke-miterlimit="10"/>
<path d="M25.5113 25.1299H11.2512C11.0212 25.1299 10.9112 25.0199 10.8012 24.9099C10.6912 24.7999 10.6912 24.5699 10.8012 24.4599C11.0312 24.0099 11.1413 23.4499 11.1413 23.0099C11.1413 22.4499 11.0312 21.9999 10.8012 21.5599C10.6912 21.4499 10.6912 21.2199 10.8012 21.1099C10.9112 20.9999 11.0312 20.8899 11.2512 20.8899H25.3912C25.6212 20.8899 25.7313 20.9999 25.8413 21.1099C25.9513 21.2199 25.9513 21.4499 25.8413 21.5599C25.6113 22.0099 25.5013 22.5699 25.5013 23.0099C25.5013 23.5699 25.6113 24.0199 25.8413 24.4599C25.9513 24.5699 25.9513 24.7999 25.8413 24.9099C25.7313 25.0199 25.6113 25.1299 25.5013 25.1299H25.5113Z" stroke="#231F20" stroke-width="1.5" stroke-miterlimit="10"/>
</svg>
