<svg width="24" height="21" viewBox="0 0 24 21" fill="none" xmlns="http://www.w3.org/2000/svg">
<g clip-path="url(#clip0_2120_1333)">
<path d="M15.7998 5.3H9.1998C8.9998 5.3 8.7998 5.1 8.7998 4.9V0.4C8.7998 0.2 8.9998 0 9.1998 0H15.7998C15.9998 0 16.1998 0.2 16.1998 0.4V4.9C16.1998 5.1 15.9998 5.3 15.7998 5.3ZM9.5998 4.5H15.2998V0.8H9.4998V4.5H9.5998Z" fill="#010101"/>
<path d="M19.8998 5.3H17.6998C17.4998 5.3 17.2998 5.1 17.2998 4.9V0.4C17.2998 0.2 17.4998 0 17.6998 0H19.8998C20.0998 0 20.2998 0.2 20.2998 0.4V4.9C20.2998 5.1 20.2998 5.3 19.8998 5.3ZM18.1998 4.5H19.5998V0.8H18.1998V4.5Z" fill="#010101"/>
<path d="M17.9004 4.7001H15.8004C15.6004 4.7001 15.4004 4.5001 15.4004 4.3001V1.0001C15.4004 0.800098 15.6004 0.600098 15.8004 0.600098H17.9004C18.1004 0.600098 18.3004 0.800098 18.3004 1.0001V4.3001C18.3004 4.5001 18.1004 4.7001 17.9004 4.7001ZM16.1004 3.9001H17.4004V1.4001H16.1004V3.9001Z" fill="#010101"/>
<path d="M9.1 4.5H4.4C4.2 4.5 4.1 4.5 4 4.3V3.9C4.9 1.8 6.6 0.5 9.1 0H9.5C9.5 0 9.7 0.2 9.7 0.4V4.1C9.7 4.3 9.4 4.5 9.2 4.5H9.1ZM5 3.7H8.7V0.9C7 1.3 5.7 2.3 5 3.7Z" fill="#010101"/>
<path d="M13.9002 20.6H11.1002C10.9002 20.6 10.7002 20.4 10.7002 20.2V14.9C10.7002 14.7 10.9002 14.5 11.1002 14.5H13.9002C14.1002 14.5 14.3002 14.7 14.3002 14.9V20.2C14.3002 20.4 14.1002 20.6 13.9002 20.6ZM11.4002 19.8H13.4002V15.3H11.4002V19.8Z" fill="#010101"/>
<path d="M13.9002 12.4999H11.1002C10.9002 12.4999 10.7002 12.2999 10.7002 12.0999V4.7999C10.7002 4.5999 10.9002 4.3999 11.1002 4.3999H13.9002C14.1002 4.3999 14.3002 4.5999 14.3002 4.7999V12.0999C14.3002 12.2999 14.1002 12.4999 13.9002 12.4999ZM11.4002 11.6999H13.4002V5.2999H11.4002V11.6999Z" fill="#010101"/>
<path d="M3.3 16.9C1.9 16.9 0.6 16 0 14.7V14.3C0 14.3 0.2 14.1 0.4 14.1H3.7V12.8H0.4C0.4 12.8 0.1 12.8 0 12.6V12.2C0.5 10.9 1.8 10 3.3 10C4.8 10 6.7 11.5 6.7 13.4C6.7 15.3 5.2 16.8 3.3 16.8V16.9ZM1.1 14.9C1.6 15.6 2.5 16.1 3.3 16.1C4.7 16.1 5.9 14.9 5.9 13.5C5.9 12.1 4.7 10.9 3.3 10.9C1.9 10.9 1.6 11.3 1.1 12.1H4.1C4.3 12.1 4.5 12.3 4.5 12.5V14.6C4.5 14.8 4.3 15 4.1 15H1.1V14.9Z" fill="#010101"/>
<path d="M20.1002 16.9001C18.2002 16.9001 16.7002 15.4001 16.7002 13.5001C16.7002 11.6001 18.2002 10.1001 20.1002 10.1001C22.0002 10.1001 22.8002 11.0001 23.4002 12.3001V12.7001C23.4002 12.7001 23.2002 12.9001 23.0002 12.9001H19.7002V14.2001H23.0002C23.0002 14.2001 23.3002 14.2001 23.4002 14.4001V14.8001C22.9002 16.1001 21.6002 17.0001 20.1002 17.0001V16.9001ZM20.1002 10.9001C18.7002 10.9001 17.5002 12.1001 17.5002 13.5001C17.5002 14.9001 18.7002 16.1001 20.1002 16.1001C21.5002 16.1001 21.8002 15.7001 22.3002 14.9001H19.3002C19.1002 14.9001 18.9002 14.7001 18.9002 14.5001V12.4001C18.9002 12.2001 19.1002 12.0001 19.3002 12.0001H22.3002C21.8002 11.2001 21.0002 10.7001 20.1002 10.7001V10.9001Z" fill="#010101"/>
<path d="M17.3996 15.3002H5.99961C5.79961 15.3002 5.69961 15.3002 5.59961 15.1002V14.7002C5.79961 14.3002 5.89961 13.9002 5.89961 13.5002C5.89961 13.1002 5.89961 12.7002 5.59961 12.3002V11.9002C5.59961 11.9002 5.79961 11.7002 5.99961 11.7002H17.2996C17.4996 11.7002 17.5996 11.7002 17.6996 11.9002V12.3002C17.4996 12.7002 17.3996 13.1002 17.3996 13.5002C17.3996 13.9002 17.3996 14.3002 17.6996 14.7002V15.1002C17.6996 15.1002 17.4996 15.3002 17.3996 15.3002ZM6.59961 14.5002H16.6996C16.6996 14.1002 16.4996 13.9002 16.4996 13.5002C16.4996 13.1002 16.4996 12.9002 16.6996 12.5002H6.59961C6.59961 12.9002 6.79961 13.1002 6.79961 13.5002C6.79961 13.9002 6.79961 14.1002 6.59961 14.5002Z" fill="#010101"/>
</g>
<defs>
<clipPath id="clip0_2120_1333">
<rect width="23.4" height="20.6" fill="white"/>
</clipPath>
</defs>
</svg>
