<svg width="36" height="36" viewBox="0 0 36 36" fill="none" xmlns="http://www.w3.org/2000/svg">
<path d="M11.5294 29.41C10.6594 29.41 9.88938 29.08 9.27938 28.41C8.66938 27.74 8.35938 26.91 8.35938 25.96C8.35938 25.01 8.66938 24.18 9.27938 23.51C9.88938 22.84 10.6594 22.51 11.5294 22.51C12.3994 22.51 13.1694 22.84 13.7794 23.51C14.3894 24.18 14.6994 25.01 14.6994 25.96C14.6994 26.85 14.3894 27.74 13.7794 28.35C13.1694 29.07 12.3494 29.41 11.5294 29.41Z" stroke="#231F20" stroke-width="1.5" stroke-miterlimit="10"/>
<path d="M22.688 24.9101C22.808 25.0401 22.808 25.2301 22.688 25.3001C22.688 25.3601 22.568 25.3601 22.508 25.3601C22.448 25.3601 22.388 25.3601 22.328 25.3001L19.008 21.6801C18.888 21.5501 18.888 21.3601 19.008 21.2901L23.098 20.6401" stroke="#231F20" stroke-width="1.5" stroke-miterlimit="10"/>
<path d="M23.1073 20.6401C23.2273 20.6401 23.3473 20.8301 23.3473 20.9601L22.8173 25.0901C22.7573 25.2801 22.6973 25.3501 22.5173 25.3501C22.3373 25.3501 22.2173 25.1601 22.2773 25.0301" stroke="#231F20" stroke-width="1.5" stroke-miterlimit="10"/>
<path d="M22.7767 14.5101H5.87672C5.81672 14.5101 5.69672 14.4501 5.69672 14.3801C5.63672 14.3201 5.63672 14.2501 5.63672 14.1201C6.40672 8.69007 7.47672 6.04007 8.89672 5.72007C9.96672 5.53007 11.0967 6.62007 12.3367 9.14007C13.6467 11.7201 14.2967 12.2401 14.6467 12.1801C15.0667 12.1801 15.3567 11.3401 15.6567 10.5001C16.1267 9.34007 16.6067 8.04007 17.6167 7.98007C18.8667 7.85007 20.5867 9.79007 22.9567 13.9201C23.0167 13.9801 23.0167 14.1101 22.9567 14.2401C22.9567 14.5001 22.8967 14.5001 22.7767 14.5001V14.5101Z" stroke="#231F20" stroke-width="1.5" stroke-miterlimit="10"/>
<path d="M34.7284 15.86L34.6684 15.8C34.4284 15.35 34.0784 15.02 33.6584 14.9C33.2384 14.71 32.7684 14.77 32.3584 14.96L29.9284 16.19C29.8684 16.25 29.8084 16.32 29.8084 16.38C29.7484 16.44 29.7484 16.51 29.8084 16.57L29.9084 16.8L26.8384 18.38L27.1984 16.57H27.4984C27.7384 16.57 27.9184 16.38 27.9184 16.12V14.96C27.9184 14.7 27.7384 14.51 27.4984 14.51H2.81844C2.57844 14.51 2.39844 14.7 2.39844 14.96V16.12C2.39844 16.31 2.51844 16.44 2.69844 16.51L8.98844 21.61C9.16844 21.74 9.40844 21.74 9.51844 21.61C9.87844 21.29 10.2884 21.03 10.7084 20.83C11.1284 20.64 11.5984 20.57 12.0684 20.57C13.0184 20.57 13.9684 20.96 14.6784 21.67C15.3884 22.38 15.8684 23.35 15.9884 24.38C15.9884 24.64 16.1684 24.77 16.4084 24.77C17.2384 24.77 17.2984 24.77 17.7684 24.51C17.8284 24.45 17.9484 24.38 18.1284 24.32C18.4884 24.71 18.8984 25.16 19.3184 25.61C20.3284 26.77 21.5184 28.06 22.4584 28.9C22.5184 28.96 22.6384 29.03 22.7584 29.09C22.8784 29.09 22.9984 29.15 23.1784 29.15C23.4784 29.15 23.7684 29.02 24.0084 28.83C24.2484 28.57 24.4284 28.25 24.4784 27.93L25.1884 22.24C26.0184 21.79 26.9084 21.4 27.7984 20.95C28.8484 20.41 29.9484 19.87 30.9984 19.33L31.0584 19.47C31.1184 19.53 31.1784 19.6 31.2384 19.6H31.4784C32.4284 19.08 33.2584 18.63 34.0284 18.18C34.3884 17.99 34.6784 17.66 34.7984 17.21C34.9184 16.76 34.9184 16.31 34.7384 15.85L34.7284 15.86Z" stroke="#231F20" stroke-width="1.5" stroke-miterlimit="10"/>
</svg>
