<svg width="36" height="36" viewBox="0 0 36 36" fill="none" xmlns="http://www.w3.org/2000/svg">
<path d="M16.2799 6.36004L19.2199 4.66004C19.2699 4.63004 19.3299 4.62004 19.3899 4.64004C19.4499 4.66004 19.4899 4.69004 19.5199 4.74004L24.7399 13.77C26.2599 16.4 25.3499 19.77 22.7299 21.29L18.1499 23.93C17.2999 24.42 16.3299 24.68 15.3499 24.68C13.3299 24.68 11.4499 23.6 10.4499 21.87L5.29994 12.95C5.26994 12.9 5.25994 12.84 5.27994 12.78C5.29994 12.72 5.32994 12.68 5.37994 12.65L16.2899 6.35004" stroke="#231F20" stroke-width="1.5" stroke-miterlimit="10"/>
<path d="M10.8107 22.28C10.7307 22.28 10.6607 22.24 10.6207 22.17L9.35072 19.97C9.32072 19.92 9.31072 19.86 9.33072 19.8C9.35072 19.74 9.38072 19.7 9.43072 19.67L23.2707 11.68C23.3707 11.62 23.5107 11.66 23.5707 11.76L24.8407 13.96C24.8707 14.01 24.8807 14.07 24.8607 14.13C24.8407 14.19 24.8107 14.23 24.7607 14.26L10.9207 22.25C10.9207 22.25 10.8507 22.28 10.8107 22.28Z" stroke="#231F20" stroke-width="1.5" stroke-miterlimit="10"/>
<path d="M20.1094 25.3601L22.3094 30.1501C22.6294 30.8401 23.3494 31.2701 24.1994 31.2701C24.6194 31.2701 25.0294 31.1601 25.3894 30.9601C25.9594 30.6301 26.3794 30.0601 26.5194 29.4201C26.6394 28.8701 26.5394 28.3201 26.2294 27.8901L23.1794 23.5901L20.1094 25.3601Z" stroke="#231F20" stroke-width="1.5" stroke-miterlimit="10"/>
<path d="M19.2582 25.78C19.0882 25.78 18.9382 25.69 18.8582 25.55L18.3282 24.64C18.1982 24.42 18.2782 24.14 18.4982 24.01L22.7882 21.53C22.9982 21.41 23.2982 21.49 23.4182 21.69L23.9482 22.61C24.0082 22.71 24.0282 22.84 23.9982 22.96C23.9682 23.08 23.8882 23.18 23.7782 23.24L19.4882 25.72C19.4182 25.76 19.3382 25.78 19.2582 25.78Z" stroke="#231F20" stroke-width="1.5" stroke-miterlimit="10"/>
<path d="M7.57812 11.8701L9.65812 15.6401" stroke="#231F20" stroke-width="1.5" stroke-miterlimit="10"/>
<path d="M10.4609 9.8999L12.5509 13.6799" stroke="#231F20" stroke-width="1.5" stroke-miterlimit="10"/>
<path d="M13.75 7.43994L15.84 11.2099" stroke="#231F20" stroke-width="1.5" stroke-miterlimit="10"/>
<path d="M16.8398 5.73999L18.9198 9.51999" stroke="#231F20" stroke-width="1.5" stroke-miterlimit="10"/>
</svg>
