<?xml version="1.0" encoding="UTF-8"?>
<svg id="Layer_1" xmlns="http://www.w3.org/2000/svg" version="1.1" viewBox="0 0 30.6 19.38">
  <!-- Generator: Adobe Illustrator 29.6.1, SVG Export Plug-In . SVG Version: 2.1.1 Build 9)  -->
  <defs>
    <style>
      .st0 {
        fill: #020202;
        stroke: #010101;
        stroke-miterlimit: 10;
        stroke-width: .2px;
      }
    </style>
  </defs>
  <g id="B_-_8_x2C__home_x2C__house_x2C__building_x2C__appartment">
    <g>
      <path class="st0" d="M30.5,7.87L22.1.17c-.1-.1-.2-.1-.3,0l-8.5,7.8v2.9c0,.1,0,.2.2.2h.3l1.5-1.4v9.4c0,.1.1.2.2.2h12.9c.1,0,.2-.1.2-.3v-9.3l1.5,1.4h.2c.1,0,.2-.1.2-.2v-3ZM28.1,18.58h-12.4v-9.5l6.2-5.8,6.2,5.7s0,9.6,0,9.6ZM30,10.17l-6.3-5.8-1.6-1.5h-.4l-7.9,7.3v-2.1L22,.58l8.1,7.5v2.1h-.1Z"/>
      <path class="st0" d="M15.5,19.08H2.1c-.1,0-.2-.1-.2-.2v-7c0-.1.1-.2.2-.2h13.4c.1,0,.2.1.2.2v6.9c0,.2-.1.3-.2.3ZM2.4,18.58h12.8v-6.4H2.4v6.4Z"/>
      <path class="st0" d="M15.5,12.17H.7c-.1,0-.2,0-.2-.1v-.3l1.5-2.9s.1-.1.2-.1h13.4c.1,0,.2.1.2.2v2.9c0,.2-.1.3-.2.3h-.1ZM1.1,11.67h14v-2.3H2.2l-1.1,2.3Z"/>
      <path class="st0" d="M6.9,19.08h-2.6c-.1,0-.2-.1-.2-.2v-5c0-.1.1-.2.2-.2h2.6c.1,0,.2.1.2.2v5c0,.1-.1.2-.2.2ZM4.6,18.58h2.1v-4.5h-2.1v4.5Z"/>
      <path class="st0" d="M13.9,17.17h-5.3c-.1,0-.2-.1-.2-.2v-3c0-.1.1-.2.2-.2h5.3c.1,0,.2.1.2.2v3c0,.2-.1.3-.2.3v-.1ZM8.8,16.67h4.7v-2.5h-4.7v2.5Z"/>
      <path class="st0" d="M20.5,14.08h-2.7c-.1,0-.2-.1-.2-.2v-2.7c0-.1.1-.2.2-.2h2.7c.1,0,.2.1.2.2v2.7c0,.1-.1.2-.2.2ZM18.1,13.58h2.2v-2.1h-2.2v2.1Z"/>
      <path class="st0" d="M23.2,14.08h-2.7c-.1,0-.2-.1-.2-.2v-2.7c0-.1.1-.2.2-.2h2.7c.1,0,.2.1.2.2v2.7c0,.1,0,.2-.2.2ZM20.8,13.58h2.2v-2.1h-2.2v2.1Z"/>
      <path class="st0" d="M26,14.08h-2.7c-.1,0-.2-.1-.2-.2v-2.7c0-.1.1-.2.2-.2h2.7c.1,0,.2.1.2.2v2.7c0,.1-.1.2-.2.2ZM23.5,13.58h2.2v-2.1h-2.2v2.1Z"/>
      <path class="st0" d="M20.5,16.67h-2.7c-.1,0-.2-.1-.2-.2v-2.7c0-.1.1-.2.2-.2h2.7c.1,0,.2.1.2.2v2.7c0,.1-.1.2-.2.2ZM18.1,16.17h2.2v-2.1h-2.2v2.1Z"/>
      <path class="st0" d="M23.2,16.67h-2.7c-.1,0-.2-.1-.2-.2v-2.7c0-.1.1-.2.2-.2h2.7c.1,0,.2.1.2.2v2.7c0,.1,0,.2-.2.2ZM20.8,16.17h2.2v-2.1h-2.2v2.1Z"/>
      <path class="st0" d="M26,16.67h-2.7c-.1,0-.2-.1-.2-.2v-2.7c0-.1.1-.2.2-.2h2.7c.1,0,.2.1.2.2v2.7c0,.1-.1.2-.2.2ZM23.5,16.17h2.2v-2.1h-2.2v2.1Z"/>
      <path class="st0" d="M29.6,19.08H.3c-.1,0-.2-.1-.2-.2s.1-.2.2-.2h29.3c.1,0,.2.1.2.2s0,.2-.2.2Z"/>
    </g>
  </g>
</svg>