<svg width="36" height="36" viewBox="0 0 36 36" fill="none" xmlns="http://www.w3.org/2000/svg">
<path d="M31.5497 14.7899L18.8397 3.07989C18.6697 2.90989 18.4897 2.90989 18.3197 3.07989L5.51969 14.8799C5.51969 14.9699 5.42969 15.0499 5.42969 15.1399V19.2799C5.42969 19.4499 5.51969 19.5399 5.68969 19.6199C5.85969 19.7099 6.03969 19.6199 6.11969 19.5299L8.45969 17.3699V31.5599C8.45969 31.7299 8.62969 31.8999 8.80969 31.8999H28.3597C28.5297 31.8999 28.7097 31.7299 28.7097 31.4699V17.3699L31.0497 19.5299C31.1397 19.6199 31.2197 19.6199 31.3097 19.6199C31.3097 19.6199 31.3997 19.6199 31.3997 19.5299C31.5697 19.4399 31.6597 19.3599 31.6597 19.1899V15.0499C31.6597 14.9599 31.6597 14.8799 31.5697 14.7899H31.5497Z" stroke="#231F20" stroke-width="1.5" stroke-miterlimit="10"/>
<path d="M16.4998 24.19H12.4398C12.2698 24.19 12.0898 24.02 12.0898 23.85V19.83C12.0898 19.66 12.2598 19.49 12.4398 19.49H16.4998C16.6698 19.49 16.8498 19.66 16.8498 19.83V23.85C16.8498 24.02 16.6798 24.19 16.4998 24.19Z" stroke="#231F20" stroke-width="1.5" stroke-miterlimit="10"/>
</svg>
