<svg width="19" height="19" viewBox="0 0 19 19" fill="none" xmlns="http://www.w3.org/2000/svg">
<g clip-path="url(#clip0_2120_1344)">
<path d="M15.4996 18.0103C14.7996 18.0103 14.0996 17.7103 13.5996 17.2103C12.9996 16.6103 12.6996 15.7103 12.7996 14.9103L5.59961 7.81025V7.71025C5.59961 7.71025 5.59961 7.61025 5.69961 7.61025C6.19961 7.41025 6.59961 7.11025 6.89961 6.81025C7.29961 6.41025 7.49961 6.01025 7.69961 5.61025L7.79961 5.51025H7.89961L15.0996 12.6103C15.8996 12.5103 16.7996 12.8103 17.3996 13.4103C17.8996 13.9103 18.1996 14.6103 18.1996 15.3103C18.1996 16.0103 17.8996 16.7103 17.3996 17.2103C16.8996 17.7103 16.1996 18.0103 15.4996 18.0103ZM5.99961 7.71025L13.0996 14.7103V14.8103C12.9996 15.6103 13.1996 16.4103 13.7996 16.9103C14.2996 17.4103 14.8996 17.6103 15.4996 17.6103C16.0996 17.6103 16.6996 17.3103 17.1996 16.9103C17.6996 16.4103 17.8996 15.8103 17.8996 15.2103C17.8996 14.6103 17.5996 14.0103 17.1996 13.5103C16.5996 13.0103 15.7996 12.7103 15.0996 12.8103H14.9996L7.89961 5.81025C7.69961 6.21025 7.39961 6.61025 7.09961 6.91025C6.79961 7.31025 6.39961 7.51025 5.99961 7.71025Z" fill="#010101" stroke="#010101" stroke-width="0.4" stroke-miterlimit="10"/>
<path d="M4.19958 8.11001C3.19958 8.11001 2.09958 7.71001 1.39958 6.91001C0.399584 5.91001 -0.00041572 4.51001 0.299584 3.21001C0.299584 3.21001 0.299584 3.11001 0.399584 3.11001H0.599584V3.31001C0.699584 3.31001 2.69958 5.51001 2.69958 5.51001L5.19958 5.21001L5.49958 2.71001L3.29958 0.710011H3.09958V0.410011C3.09958 0.343344 3.13292 0.310011 3.19958 0.310011C4.59958 1.07065e-05 5.99958 0.310011 6.99958 1.41001C8.59958 3.01001 8.59958 5.51001 6.99958 7.01001C6.19958 7.71001 5.19958 8.11001 4.19958 8.11001ZM0.599584 3.61001C0.499584 4.71001 0.799584 5.81001 1.59958 6.71001C2.99958 8.11001 5.39958 8.11001 6.79958 6.71001C8.19958 5.31001 8.19958 3.01001 6.79958 1.61001C5.99958 0.810011 4.79958 0.410011 3.69958 0.610011L5.89958 2.61001V2.71001L5.49958 5.41001C5.49958 5.41001 5.49958 5.51001 5.39958 5.51001L2.59958 5.91001H2.49958L0.499584 3.71001L0.599584 3.61001Z" fill="#010101" stroke="#010101" stroke-width="0.4" stroke-miterlimit="10"/>
<path d="M15.4992 16.5101C15.1992 16.5101 14.7992 16.4101 14.5992 16.1101C14.3992 15.9101 14.1992 15.6101 14.1992 15.2101C14.1992 14.8101 14.2992 14.5101 14.5992 14.3101C15.0992 13.8101 15.8992 13.8101 16.3992 14.3101C16.5992 14.5101 16.7992 14.8101 16.7992 15.2101C16.7992 15.6101 16.6992 15.9101 16.3992 16.1101C16.0992 16.3101 15.7992 16.5101 15.4992 16.5101ZM14.8992 14.6101C14.6992 14.8101 14.5992 15.0101 14.5992 15.3101C14.5992 15.6101 14.6992 15.8101 14.8992 15.9101C15.0992 16.1101 15.2992 16.2101 15.5992 16.2101C15.8992 16.2101 16.0992 16.1101 16.2992 15.9101C16.4992 15.7101 16.5992 15.5101 16.5992 15.2101C16.5992 14.9101 16.4992 14.7101 16.2992 14.5101C15.8992 14.2101 15.2992 14.2101 14.9992 14.5101L14.8992 14.6101Z" fill="#010101" stroke="#010101" stroke-width="0.4" stroke-miterlimit="10"/>
</g>
<defs>
<clipPath id="clip0_2120_1344">
<rect width="18.4" height="18.21" fill="white"/>
</clipPath>
</defs>
</svg>
