<svg width="36" height="36" viewBox="0 0 36 36" fill="none" xmlns="http://www.w3.org/2000/svg">
<path d="M12.8711 15.8001L24.6111 27.3701C24.6711 27.4301 24.6711 27.4901 24.6711 27.6101C24.4911 28.8701 24.9111 30.1901 25.8211 31.0301C26.6111 31.8101 27.5811 32.1701 28.6711 32.1701C29.7611 32.1701 30.7311 31.7501 31.5211 31.0301C32.3111 30.2501 32.6711 29.2901 32.6711 28.2101C32.6711 27.1301 32.2511 26.1701 31.5211 25.3901C30.6111 24.4901 29.2811 24.0701 28.0011 24.2501C27.9411 24.2501 27.8211 24.2501 27.7611 24.1901L16.0211 12.6201C15.7211 13.2801 15.2311 13.9401 14.6911 14.4801C14.2011 15.0801 13.5411 15.5001 12.8711 15.8001Z" stroke="#231F20" stroke-width="1.5" stroke-miterlimit="10"/>
<path d="M10.0213 16.4601C8.32127 16.4601 6.62127 15.8001 5.35127 14.5401C3.71127 12.9201 3.04127 10.5801 3.59127 8.36008C3.59127 8.24008 3.71127 8.18008 3.83127 8.18008C3.95127 8.18008 4.07127 8.18008 4.13127 8.30008L4.31127 8.60008L7.65127 12.2601L11.8413 11.7201L12.3913 7.58008L8.69127 4.28008L8.39127 4.10008C8.27127 4.04008 8.27127 3.92008 8.27127 3.80008C8.27127 3.68008 8.39127 3.62008 8.45127 3.56008C10.6913 3.02008 13.0613 3.68008 14.7013 5.30008C17.3113 7.88008 17.3113 12.0201 14.7013 14.6001C13.4313 15.8001 11.7313 16.4601 10.0313 16.4601H10.0213Z" stroke="#231F20" stroke-width="1.5" stroke-miterlimit="10"/>
<path d="M27.5919 27.19C27.2919 27.49 27.1719 27.85 27.1719 28.27C27.1719 28.69 27.3519 29.05 27.5919 29.29C27.8919 29.59 28.2619 29.71 28.6819 29.71C29.1019 29.71 29.4719 29.53 29.7719 29.29C30.0719 28.99 30.1919 28.63 30.1919 28.21C30.1919 27.79 30.0119 27.43 29.7719 27.13C29.1619 26.59 28.1919 26.59 27.5919 27.19Z" stroke="#231F20" stroke-width="1.5" stroke-miterlimit="10"/>
</svg>
