<svg width="36" height="36" viewBox="0 0 36 36" fill="none" xmlns="http://www.w3.org/2000/svg">
<path d="M18.5006 32.6C18.1906 32.45 17.9705 32.37 17.8205 32.04C17.8005 31.99 17.6906 31.67 17.6906 31.65V28.15L15.0406 29.64C13.8906 30.09 13.0606 28.78 13.9306 27.95L17.6906 25.83V19.58L12.3205 22.66C12.3105 23.49 12.3006 24.33 12.3106 25.17C12.3106 25.78 12.5106 26.68 12.2706 27.26C11.9906 27.93 11.0105 28.07 10.5505 27.51C10.4705 27.41 10.2905 26.96 10.2905 26.85V23.87L7.16055 25.63C6.14055 26.04 5.27055 24.73 6.07055 23.96C6.44055 23.6 7.76055 22.95 8.28055 22.64C8.59055 22.46 8.91055 22.27 9.25055 22.13C9.28055 22.09 9.13055 21.99 9.09055 21.97C8.48055 21.53 6.70055 20.75 6.35055 20.25C5.75055 19.4 6.69055 18.32 7.62055 18.74L11.3005 20.89L16.6606 17.76L11.3005 14.68L7.36055 16.91C6.49055 17.04 5.83055 16.07 6.35055 15.32C6.69055 14.83 8.48055 14.04 9.09055 13.6C9.13055 13.57 9.27055 13.47 9.25055 13.44C8.92055 13.3 8.60055 13.11 8.28055 12.93C7.76055 12.62 6.43055 11.97 6.07055 11.61C5.33055 10.89 6.03055 9.64003 7.04055 9.89003L10.2905 11.7V8.72003C10.2905 8.61003 10.4705 8.16003 10.5505 8.06003C11.0105 7.50003 11.9906 7.64003 12.2706 8.31003C12.5106 8.89003 12.3206 9.79003 12.3106 10.4C12.3106 11.24 12.3105 12.07 12.3205 12.91L17.6906 15.99V9.74003L13.9306 7.62003C13.0406 6.80003 13.9306 5.44003 15.0406 5.93003L17.6906 7.42003V3.92003C17.6906 3.92003 17.8005 3.58003 17.8205 3.53003C18.1605 2.78003 19.3005 2.78003 19.6405 3.53003C19.6605 3.58003 19.7706 3.90003 19.7706 3.92003V7.42003C20.7906 6.91003 21.7405 6.18003 22.8205 5.81003C23.8005 5.81003 24.2606 6.95003 23.5306 7.62003L19.7706 9.74003V15.99L25.1405 12.91C25.1505 12.08 25.1605 11.24 25.1505 10.4C25.1505 9.79003 24.9505 8.89003 25.1905 8.31003C25.5205 7.51003 26.7405 7.53003 27.0605 8.31003C27.0805 8.36003 27.1705 8.70003 27.1705 8.72003V11.7L30.4205 9.89003C31.4305 9.64003 32.1305 10.89 31.3905 11.61C31.0205 11.97 29.7005 12.62 29.1805 12.93C28.8705 13.11 28.5505 13.3 28.2105 13.44C28.1805 13.48 28.3306 13.58 28.3706 13.6C28.9806 14.04 30.7705 14.82 31.1105 15.32C31.6305 16.07 30.9705 17.03 30.1005 16.91L26.1605 14.68L20.8005 17.81L26.1605 20.89L29.8405 18.74C30.7705 18.31 31.7105 19.39 31.1105 20.25C30.7605 20.75 28.9806 21.53 28.3706 21.97C28.3306 22 28.1905 22.1 28.2105 22.13C28.5405 22.27 28.8605 22.46 29.1805 22.64C29.7005 22.95 31.0305 23.6 31.3905 23.96C32.1805 24.73 31.3205 26.04 30.3005 25.63L27.1705 23.87V26.74C27.1705 26.74 27.1005 27.13 27.0905 27.18C26.8305 28.05 25.5405 28.12 25.1905 27.28C24.9505 26.7 25.1405 25.8 25.1505 25.19C25.1505 24.35 25.1505 23.52 25.1405 22.68L19.7706 19.6V25.85L23.5306 27.97C24.4006 28.8 23.5705 30.11 22.4205 29.66L19.7706 28.17V31.67C19.7706 31.67 19.6605 32.01 19.6405 32.06C19.4905 32.39 19.2705 32.48 18.9605 32.62H18.5006V32.6Z" stroke="#231F20" stroke-width="1.5" stroke-miterlimit="10"/>
</svg>
