<svg width="36" height="36" viewBox="0 0 36 36" fill="none" xmlns="http://www.w3.org/2000/svg">
<path d="M29.8405 16.0901V29.2601C29.9005 29.4301 29.7805 29.5401 29.6205 29.5401H6.45047C6.34047 29.5401 6.23047 29.4301 6.23047 29.3201V16.1501" stroke="#231F20" stroke-width="1.5" stroke-miterlimit="10"/>
<path d="M25.45 20.0401L24.69 21.0001L25.44 21.9201C25.65 22.0501 27.12 21.8801 27.51 21.9501C27.68 21.9801 27.84 22.2201 27.83 22.3801C27.81 22.6701 27.13 23.3601 26.89 23.5501C25.66 24.4801 23.8 24.3301 22.72 23.2401C22.56 23.0801 22.2 22.4401 22.08 22.4201H14.95C14.74 22.4201 14.68 22.6801 14.56 22.8501C13.24 24.6301 10.3 24.6401 9.24998 22.6401C9.10998 22.3801 9.12998 22.0201 9.46998 21.9601C10.04 21.8501 10.9 22.0501 11.5 21.9501C11.63 21.7101 12.18 21.2801 12.27 21.0801C12.31 21.0001 12.31 20.9801 12.27 20.9101C12.18 20.7201 11.63 20.2801 11.5 20.0401C10.89 19.9401 10.04 20.1401 9.46998 20.0301C9.33998 20.0101 9.17998 19.8201 9.15998 19.7001C9.09998 19.3901 9.77998 18.6901 10.03 18.4901C11.27 17.5101 13.15 17.6201 14.26 18.7501C14.42 18.9101 14.78 19.5501 14.9 19.5701H22.03C22.1 19.5701 22.15 19.5701 22.2 19.5101C22.31 19.4101 22.56 18.9101 22.75 18.7201C23.86 17.6301 25.69 17.5301 26.92 18.4701C27.15 18.6501 27.82 19.3301 27.83 19.6001C27.84 19.7701 27.68 20.0001 27.51 20.0301C27.14 20.1001 25.62 19.9401 25.45 20.0401Z" stroke="#231F20" stroke-width="1.5" stroke-miterlimit="10"/>
<path d="M2.51953 19.58L17.8395 5.54004L25.8695 12.45L25.8095 10.35H28.8395V14.89L33.2995 19.65" stroke="#231F20" stroke-width="1.5" stroke-miterlimit="10"/>
</svg>
